<svg width="1440" height="800" viewBox="0 0 1440 800" fill="none" xmlns="http://www.w3.org/2000/svg">
<path d="M701.169 116.898H1091.07V188.973H701.169V116.898Z" fill="black"/>
<path d="M1306.83 353.221H916.926V425.296H1306.83V353.221Z" fill="black"/>
<path d="M1091.07 611.027H701.169V683.102H1091.07V611.027Z" fill="black"/>
<path fill-rule="evenodd" clip-rule="evenodd" d="M1440 0H0V800H1440V0ZM648 238.871V67H1144.24V238.871H648ZM1187.39 152.935C1187.39 105.49 1225.11 67 1271.61 67C1318.11 67 1355.82 105.49 1355.82 152.935C1355.82 200.381 1318.11 238.871 1271.61 238.871C1225.11 238.871 1187.39 200.381 1187.39 152.935ZM863.758 303.323V475.194H1360V303.323H863.758ZM816.431 389.258C816.431 436.704 778.711 475.194 732.215 475.194C685.719 475.194 648 436.704 648 389.258C648 341.812 685.719 303.323 732.215 303.323C778.711 303.323 816.431 341.812 816.431 389.258ZM648 561.129V733H1144.24V561.129H648ZM1187.39 647.065C1187.39 599.619 1225.11 561.129 1271.61 561.129C1318.11 561.129 1355.82 599.619 1355.82 647.065C1355.82 694.51 1318.11 733 1271.61 733C1225.11 733 1187.39 694.51 1187.39 647.065Z" fill="black"/>
</svg>
