<svg width="1401" height="800" viewBox="0 0 1401 800" fill="none" xmlns="http://www.w3.org/2000/svg">
<path d="M0 0H221V800H0V0Z" fill="black"/>
<path d="M792.094 166.994H1113V226.315H792.094V166.994Z" fill="black"/>
<path d="M1290.58 361.498H969.672V420.819H1290.58V361.498Z" fill="black"/>
<path d="M1113 573.685H792.094V633.006H1113V573.685Z" fill="black"/>
<path fill-rule="evenodd" clip-rule="evenodd" d="M1400.19 70.7819H215V729.218H1400.19V70.7819ZM748.333 267.384V125.926H1156.76V267.384H748.333ZM1192.28 196.655C1192.28 157.605 1223.32 125.926 1261.59 125.926C1299.86 125.926 1330.91 157.605 1330.91 196.655C1330.91 235.705 1299.86 267.384 1261.59 267.384C1223.32 267.384 1192.28 235.705 1192.28 196.655ZM925.912 320.43V461.888H1334.34V320.43H925.912ZM886.96 391.159C886.96 430.209 855.915 461.888 817.646 461.888C779.378 461.888 748.333 430.209 748.333 391.159C748.333 352.109 779.378 320.43 817.646 320.43C855.915 320.43 886.96 352.109 886.96 391.159ZM748.333 532.616V674.074H1156.76V532.616H748.333ZM1192.28 603.345C1192.28 564.295 1223.32 532.616 1261.59 532.616C1299.86 532.616 1330.91 564.295 1330.91 603.345C1330.91 642.395 1299.86 674.074 1261.59 674.074C1223.32 674.074 1192.28 642.395 1192.28 603.345Z" fill="black"/>
<path d="M215 729.218H1400.19V800H215V729.218Z" fill="black"/>
<path d="M215 0H1400.19V70.7819H215V0Z" fill="black"/>
</svg>
