<svg width="56" height="56" viewBox="0 0 56 56" fill="none" xmlns="http://www.w3.org/2000/svg">
<rect width="56" height="56" rx="28" fill="url(#paint0_linear_5999_17655)"/>
<rect x="0.5" y="0.5" width="55" height="55" rx="27.5" stroke="white" stroke-opacity="0.1"/>
<g clip-path="url(#clip0_5999_17655)">
<path d="M24.9393 19.7927C25.7493 19.5664 26.6069 19.4353 27.4884 19.4353C30.1686 19.4353 32.5628 20.5789 34.2662 22.3895L32.0983 23.0803L40.8296 26.8206L45.8206 18.7326L42.4377 19.8046C39.4002 14.7183 33.8493 11.3115 27.5003 11.3115C25.9994 11.3115 24.5343 11.5259 23.1406 11.8833L27.5003 15.2424L24.9393 19.7927Z" fill="#2C2C2C"/>
<path opacity="0.3" d="M41.0309 28.0715L36.3854 26.0822C36.6355 26.916 36.7665 27.8094 36.7665 28.7266C36.7665 31.3829 35.6468 33.7653 33.8601 35.4568L32.3234 33.0625L31.0608 41.9487L39.6611 44.5097L38.2912 42.3775C42.3174 39.1852 44.9023 34.2656 44.9023 28.7385C44.9023 26.8207 44.5807 24.9863 44.0089 23.2591L41.0309 28.0715ZM14.0746 30.8112L18.6964 31.6927C18.3867 30.7635 18.208 29.7629 18.208 28.7266C18.208 25.9274 19.4587 23.414 21.4242 21.7106L21.8292 23.6879L26.3914 15.5165L18.9823 9.79883L19.6612 13.1818C13.9793 16.0406 10.0723 21.925 10.0723 28.7266C10.0723 31.6093 10.787 34.3132 12.0139 36.7075L14.0746 30.8112Z" fill="#2C2C2C"/>
<path d="M30.5366 37.4938C29.5837 37.8274 28.5593 38.018 27.4872 38.018C24.8547 38.018 22.4962 36.9221 20.8047 35.171L23.6278 33.5391L14.7416 31.8477L11.7637 40.3884L13.6576 39.2925C16.8381 43.4497 21.841 46.1418 27.4872 46.1418C30.2746 46.1418 32.8951 45.4747 35.2299 44.3074L29.7981 42.6874L30.5366 37.4938Z" fill="#2C2C2C"/>
</g>
<defs>
<linearGradient id="paint0_linear_5999_17655" x1="28" y1="0" x2="28" y2="56" gradientUnits="userSpaceOnUse">
<stop stop-color="#49CE34"/>
<stop offset="1" stop-color="#1E6114"/>
</linearGradient>
<clipPath id="clip0_5999_17655">
<rect width="36" height="36" fill="white" transform="translate(10 10)"/>
</clipPath>
</defs>
</svg>
