<svg width="56" height="56" viewBox="0 0 56 56" fill="none" xmlns="http://www.w3.org/2000/svg">
<rect width="56" height="56" rx="28" fill="url(#paint0_linear_5999_17650)"/>
<rect x="0.5" y="0.5" width="55" height="55" rx="27.5" stroke="white" stroke-opacity="0.1"/>
<g clip-path="url(#clip0_5999_17650)">
<path d="M12.6406 41.2081C12.6406 41.8481 13.1526 42.3601 13.7926 42.3601H17.2486C17.8886 42.3601 18.4006 41.8481 18.4006 41.2081V35.3201C18.4006 34.6801 17.8886 34.1681 17.2486 34.1681H13.7926C13.1526 34.1681 12.6406 34.6801 12.6406 35.3201V41.2081ZM22.1126 42.2321H25.5686C26.2086 42.2321 26.7206 41.7201 26.7206 41.0801V29.9441C26.7206 29.3041 26.2086 28.7921 25.5686 28.7921H22.1126C21.4726 28.9201 20.9606 29.4321 20.9606 29.9441V41.0801C20.9606 41.8481 21.4726 42.2321 22.1126 42.2321ZM30.4326 30.0721C29.7926 30.0721 29.2806 30.5841 29.2806 31.2241V41.2081C29.2806 41.8481 29.7926 42.3601 30.4326 42.3601H33.8886C34.5286 42.3601 35.0406 41.8481 35.0406 41.2081V31.2241C35.0406 30.5841 34.5286 30.0721 33.8886 30.0721H30.4326ZM43.3606 41.2081V24.8241C43.3606 24.1841 42.8486 23.6721 42.2086 23.6721H38.7526C38.1126 23.6721 37.6006 24.1841 37.6006 24.8241V41.2081C37.6006 41.8481 38.1126 42.3601 38.7526 42.3601H42.2086C42.8486 42.2321 43.3606 41.7201 43.3606 41.2081Z" fill="#2C2C2C"/>
<path opacity="0.3" d="M14.2668 24.44C14.7788 24.952 15.5468 24.952 16.0588 24.44L23.6108 17.4L31.0348 24.568C31.2908 24.824 31.5468 24.952 31.9308 24.952C32.3148 24.952 32.5708 24.824 32.8268 24.568L39.6108 17.4L40.3788 18.04C40.7628 18.296 41.2748 18.424 41.6588 18.296C42.0428 18.04 42.4268 17.656 42.4268 17.144L42.9388 13.176C42.9388 12.792 42.8108 12.28 42.5548 12.024C42.2988 11.768 41.7868 11.64 41.4028 11.768L37.4348 12.664C36.9228 12.792 36.6668 13.176 36.5388 13.56C36.4108 14.072 36.5388 14.456 36.9228 14.84L37.6908 15.48L31.8028 21.624L24.5068 14.712C23.9948 14.2 23.2268 14.2 22.7148 14.712L14.2668 22.52C13.7548 23.032 13.7548 23.928 14.2668 24.44Z" fill="#2C2C2C"/>
</g>
<defs>
<linearGradient id="paint0_linear_5999_17650" x1="28" y1="0" x2="28" y2="56" gradientUnits="userSpaceOnUse">
<stop stop-color="#F766E2"/>
<stop offset="1" stop-color="#A6198E"/>
</linearGradient>
<clipPath id="clip0_5999_17650">
<rect width="32" height="32" fill="white" transform="translate(12 11)"/>
</clipPath>
</defs>
</svg>
