<svg width="56" height="56" viewBox="0 0 56 56" fill="none" xmlns="http://www.w3.org/2000/svg">
<rect width="56" height="56" rx="28" fill="url(#paint0_linear_5999_17661)"/>
<rect x="0.5" y="0.5" width="55" height="55" rx="27.5" stroke="white" stroke-opacity="0.1"/>
<path opacity="0.3" d="M33.5479 20.0116C33.6016 20.0519 33.6419 20.1459 33.6285 20.3204L32.702 24.1204C32.608 24.55 32.7154 24.9931 32.984 25.3423C33.266 25.6779 33.6688 25.8793 34.1119 25.8793H38.8786C39.3217 25.8793 39.7245 25.6779 40.0065 25.3423C40.275 24.9931 40.3824 24.55 40.2884 24.1069L39.362 20.3339C39.3351 20.1996 39.362 20.0788 39.4157 20.025C42.8866 17.063 40.228 11.3376 35.562 12.2104C33.462 12.8106 32.369 14.1828 32.0844 15.7417C31.7755 17.353 32.3261 18.9509 33.5479 20.0116Z" fill="#2C2C2C"/>
<path d="M15.1173 43.134H33.7627C34.6747 43.134 35.572 42.7686 36.2027 42.138L44.18 34.8753C45.2733 33.782 45.2733 31.9873 44.18 30.8793C43.6776 30.3785 43.0054 30.0847 42.2966 30.0563C41.5878 30.0279 40.8942 30.2669 40.3533 30.726L33.6227 36.4033C33.3293 36.6566 32.964 36.782 32.5853 36.782H26.964C26.2067 36.782 25.604 36.1793 25.604 35.4353C25.604 34.6926 26.2067 34.09 26.964 34.09H29.024C29.8525 34.084 30.6449 33.7504 31.2283 33.1621C31.8116 32.5737 32.1384 31.7785 32.1373 30.95C32.1286 30.1297 31.7968 29.3459 31.214 28.7686C30.6312 28.1913 29.8443 27.867 29.024 27.866H21.944C21.356 27.866 20.7947 28.118 20.4027 28.5526L17.9067 31.286C17.8394 31.356 17.759 31.412 17.6699 31.4506C17.5809 31.4893 17.4851 31.5099 17.388 31.5113H15.1027C14.8265 31.5111 14.553 31.5654 14.2978 31.671C14.0426 31.7766 13.8108 31.9315 13.6155 32.1268C13.4202 32.3221 13.2653 32.5539 13.1597 32.8091C13.0541 33.0643 12.9998 33.3378 13 33.614L13.0133 41.0446C13.028 42.194 13.968 43.1326 15.1173 43.1326V43.134Z" fill="#2C2C2C"/>
<defs>
<linearGradient id="paint0_linear_5999_17661" x1="28" y1="0" x2="28" y2="56" gradientUnits="userSpaceOnUse">
<stop stop-color="#856EF6"/>
<stop offset="1" stop-color="#5228C1"/>
</linearGradient>
</defs>
</svg>
