<svg width="16" height="16" viewBox="0 0 16 16" fill="none" xmlns="http://www.w3.org/2000/svg">
<g clip-path="url(#clip0_3816_97985)">
<path d="M15.6683 5.24748C15.3127 4.86654 13.104 2.42582 12.2635 1.5755C12.0021 1.31236 11.8105 1.13012 11.4127 1.11589C11.0149 1.10123 4.60349 1.11589 4.60349 1.11589C4.38436 1.11589 4.1021 1.16346 3.73984 1.56039C2.8953 2.48805 0.990191 4.53228 0.34834 5.24792C-0.0872656 5.72042 -0.142827 6.39161 0.34834 7.08369C1.39468 8.22293 4.26879 11.3139 7.15712 14.429C7.56739 14.8721 7.82564 14.8886 8.00832 14.8886C8.19057 14.8886 8.44037 14.8806 8.85909 14.429C11.7212 11.3428 14.4677 8.39317 15.6683 7.08369C16.0746 6.62497 16.1506 5.78932 15.6683 5.24792V5.24748Z" fill="url(#paint0_linear_3816_97985)"/>
<path d="M12.8176 6.44595H10.922C10.8473 6.44217 10.7727 6.45528 10.7059 6.48394C10.6391 6.5126 10.5824 6.55578 10.5417 6.60908L7.50991 9.90768L7.50362 9.91923V9.90723L4.46712 6.61263C4.42673 6.55927 4.37029 6.51602 4.30362 6.48735C4.23696 6.45867 4.16249 6.44561 4.08789 6.4495H2.19014C2.16504 6.44962 2.1402 6.45393 2.11706 6.46219C2.09391 6.47045 2.07292 6.4825 2.05526 6.49765C2.0376 6.5128 2.02364 6.53075 2.01415 6.55048C2.00467 6.57021 1.99986 6.59133 2 6.61263V7.42695C1.99986 7.44823 2.00468 7.46933 2.01416 7.48904C2.02365 7.50874 2.03763 7.52666 2.05529 7.54177C2.07295 7.55689 2.09396 7.56889 2.1171 7.57711C2.14024 7.58532 2.16506 7.58958 2.19014 7.58963H2.37033C2.64376 7.58963 2.62333 7.62964 2.75585 7.75232C3.70761 8.74354 7.50258 12.6684 7.50258 12.6684V12.6511C7.50258 12.6569 7.50624 12.6635 7.50886 12.6684C7.51096 12.6733 11.2986 8.74088 12.2472 7.74565C12.3782 7.62386 12.3598 7.58297 12.6312 7.58297H12.8108C12.8612 7.58238 12.9093 7.56498 12.9447 7.53454C12.9801 7.50409 12.9999 7.46305 12.9999 7.42028V6.61263C13.0007 6.5914 12.9964 6.57026 12.9874 6.55044C12.9784 6.53063 12.9648 6.51254 12.9474 6.49726C12.9301 6.48197 12.9092 6.46979 12.8862 6.46144C12.8632 6.45308 12.8385 6.44872 12.8134 6.44861" fill="#FFF8EA"/>
</g>
<defs>
<linearGradient id="paint0_linear_3816_97985" x1="4.63186" y1="0.42023" x2="9.26344" y2="13.0518" gradientUnits="userSpaceOnUse">
<stop stop-color="#FDD994"/>
<stop offset="1" stop-color="#DFB056"/>
</linearGradient>
<clipPath id="clip0_3816_97985">
<rect width="16" height="16" fill="white"/>
</clipPath>
</defs>
</svg>
