<svg width="375" height="598" viewBox="0 0 375 598" fill="none" xmlns="http://www.w3.org/2000/svg">
<g clip-path="url(#clip0_2520_35618)">
<path fill-rule="evenodd" clip-rule="evenodd" d="M375 0H0V598H375V346.997C393.926 346.757 409.207 331.015 409.207 311.645C409.207 292.275 393.926 276.534 375 276.293V240.935H410.925V170.226H375V143.707C393.926 143.466 409.207 127.725 409.207 108.355C409.207 88.9851 393.926 73.2434 375 73.0028V0ZM375 73.0028C374.854 73.0009 374.707 73 374.56 73C355.431 73 339.913 88.8352 339.913 108.355C339.913 127.874 355.431 143.71 374.56 143.71C374.707 143.71 374.854 143.709 375 143.707V73.0028ZM375 190.754V170.226H206.765V240.935H375V220.407H389.051V190.754H375ZM375 190.754V220.407H228.639V190.754H375ZM375 276.293C374.854 276.291 374.707 276.29 374.56 276.29C355.431 276.29 339.913 292.125 339.913 311.645C339.913 331.165 355.431 347 374.56 347C374.707 347 374.854 346.999 375 346.997V276.293ZM139.874 93.5286H300.286V123.181H139.874V93.5286ZM118 143.71V73H322.16V143.71H118ZM187.294 205.581C187.294 225.1 171.776 240.935 152.647 240.935C133.518 240.935 118 225.1 118 205.581C118 186.061 133.518 170.226 152.647 170.226C171.776 170.226 187.294 186.061 187.294 205.581ZM300.286 296.819H139.874V326.471H300.286V296.819ZM118 276.29V347H322.16V276.29H118Z" fill="black"/>
</g>
<defs>
<clipPath id="clip0_2520_35618">
<rect width="375" height="598" fill="white"/>
</clipPath>
</defs>
</svg>
