<svg width="327" height="150" viewBox="0 0 327 150" fill="none" xmlns="http://www.w3.org/2000/svg">
<rect width="327" height="150" rx="20" fill="#EDE9E5"/>
<g clip-path="url(#clip0_3029_62758)">
<path d="M109.563 64.6978L106.675 59.6978C108.025 57.1103 108.025 54.0603 108.025 50.0478C108.025 45.0478 108.025 41.2978 105.138 38.2603C104.143 37.1747 102.922 36.32 101.562 35.7564C100.201 35.1928 98.7339 34.9338 97.2627 34.9978C95.7956 34.9654 94.3377 35.2388 92.982 35.8005C91.6262 36.3621 90.4021 37.1998 89.3877 38.2603C86.5002 41.1603 86.5002 44.8353 86.5002 49.9978C86.5002 55.1603 86.3502 58.7478 89.3877 61.7728C90.3944 62.8492 91.6168 63.7011 92.9752 64.2728C94.3337 64.8296 95.7956 65.0896 97.2627 65.0353C98.0837 65.0233 98.9009 64.9227 99.7002 64.7353L109.563 64.6978ZM93.4877 58.2603C92.4377 57.0103 92.1377 55.6603 92.1377 49.9978C92.1377 44.3353 92.5002 42.9478 93.4877 41.7353C93.9683 41.2558 94.5371 40.8738 95.1627 40.6103C95.7832 40.346 96.4508 40.2099 97.1252 40.2103C97.8036 40.2113 98.475 40.3473 99.1002 40.6103C99.7221 40.874 100.287 41.2561 100.763 41.7353C101.813 42.9853 102.113 44.3353 102.113 49.9978C102.113 55.6603 101.813 57.0353 100.763 58.2603C100.298 58.7533 99.7362 59.1449 99.1127 59.4103C98.4804 59.6602 97.8051 59.7834 97.1252 59.7728C96.448 59.7864 95.7754 59.6587 95.1502 59.3978C94.5246 59.1353 93.959 58.7483 93.4877 58.2603Z" fill="black"/>
<path d="M176.038 35.2988H181.625V64.6988H176.038V35.2988Z" fill="black"/>
<path d="M40.6125 64.9984C36.25 64.9984 32.9 64.0859 30 61.1734L33.6375 57.4984C34.5773 58.3553 35.6776 59.0174 36.8748 59.4465C38.072 59.8756 39.3424 60.0632 40.6125 59.9984C43.95 59.9984 45.7625 58.7484 45.7625 56.3234C45.7797 55.8721 45.7075 55.4218 45.55 54.9984C45.3974 54.5789 45.159 54.1957 44.85 53.8734C44.1268 53.2521 43.2254 52.8757 42.275 52.7984L38.75 52.3109C36.6585 52.133 34.689 51.2517 33.1625 49.8109C32.4605 49.0316 31.917 48.1231 31.5625 47.1359C31.1893 46.1339 31.0235 45.0665 31.075 43.9984C31.05 38.8234 34.8375 35.1484 41.25 35.1484C45.1875 35.1484 48.225 36.0484 50.6625 38.5109L46.9875 42.0484C46.1954 41.3154 45.2599 40.7548 44.24 40.4019C43.2202 40.0491 42.1382 39.9117 41.0625 39.9984C38.025 39.9984 36.525 41.6984 36.525 43.7484C36.5491 44.5443 36.8701 45.3024 37.425 45.8734C38.2107 46.5252 39.1554 46.9566 40.1625 47.1234L43.65 47.5734C45.7337 47.6298 47.7234 48.4532 49.2375 49.8859C50.0131 50.7272 50.6161 51.7125 51.0125 52.7859C51.4002 53.8715 51.5742 55.0218 51.525 56.1734C51.525 61.8109 46.6875 65.0359 40.6 65.0359" fill="black"/>
<path d="M59.6875 64.6988V35.2988H78.925V40.2988H65.425V47.2363H76.925V52.4988H65.4375V59.7113H78.9375V64.7113H59.6875" fill="black"/>
<path d="M127.263 64.9988C121.338 64.9988 116.5 60.8738 116.5 54.5988V35.2988H122.288V54.4238C122.288 57.7988 124.275 59.7738 127.288 59.7738C130.3 59.7738 132.288 57.7613 132.288 54.4238V35.2988H137.875V54.5738C137.875 60.8238 133.225 64.9738 127.3 64.9738" fill="black"/>
<path d="M164.825 61.7728C163.829 62.8562 162.608 63.7085 161.248 64.2699C159.887 64.8314 158.42 65.0883 156.95 65.0228C155.485 65.0628 154.028 64.7941 152.673 64.2342C151.319 63.6742 150.097 62.8356 149.088 61.7728C146.25 58.8603 146.25 55.1853 146.25 49.9978C146.25 44.8103 146.1 41.2478 149.15 38.2228C150.137 37.1491 151.346 36.3041 152.693 35.747C154.041 35.1899 155.494 34.9342 156.95 34.9978C158.415 34.9773 159.868 35.2548 161.222 35.8135C162.576 36.3722 163.802 37.2004 164.825 38.2478C167.713 41.1603 167.713 44.8353 167.713 50.0228C167.713 55.2103 167.713 58.7478 164.825 61.7728ZM160.588 41.7728C160.112 41.2932 159.547 40.9125 158.924 40.6527C158.3 40.3929 157.632 40.2591 156.956 40.2591C156.281 40.2591 155.613 40.3929 154.989 40.6527C154.366 40.9125 153.801 41.2932 153.325 41.7728C152.263 43.0228 151.975 44.3728 151.975 50.0353C151.975 55.6978 152.263 57.0728 153.325 58.2853C153.799 58.7679 154.364 59.1513 154.987 59.413C155.611 59.6748 156.28 59.8096 156.956 59.8096C157.633 59.8096 158.302 59.6748 158.926 59.413C159.549 59.1513 160.114 58.7679 160.588 58.2853C161.638 57.0353 161.938 55.6978 161.938 50.0353C161.938 44.3728 161.675 42.9478 160.588 41.7353V41.7728Z" fill="black"/>
<path d="M208.475 64.6988L206.812 59.4988H196.5L194.7 64.6988H188.75L199.4 35.2988H203.75L214.363 64.6988H208.475ZM201.637 43.8613L198 54.5738H205.275L201.637 43.8613Z" fill="black"/>
<path d="M247.725 35.2988H255V42.6488H247.725V35.2988Z" fill="black"/>
<path d="M229.537 58.3738V35.2988H225.9V62.0863L229.537 58.3738Z" fill="black"/>
<path d="M232.087 61.0215L228.45 64.6965H255V61.0215H232.087Z" fill="black"/>
<path d="M236.812 51.0613V35.2988H233.175V54.7363L236.812 51.0613Z" fill="black"/>
<path d="M239.363 53.6719L235.713 57.3469H255V53.6719H239.363Z" fill="black"/>
<path d="M244.074 43.7488V35.2988H240.437V47.3863L244.074 43.7488Z" fill="black"/>
<path d="M246.638 46.3223L243.013 49.9973H255V46.3223H246.638Z" fill="black"/>
</g>
<path d="M34.8 118.192C34.2987 118.192 33.8507 118.144 33.456 118.048C33.0613 117.952 32.704 117.824 32.384 117.664C32.064 117.493 31.776 117.291 31.52 117.056C31.2747 116.821 31.0507 116.565 30.848 116.288L31.552 115.712C31.968 116.245 32.4267 116.656 32.928 116.944C33.4293 117.221 34.064 117.36 34.832 117.36C35.728 117.36 36.416 117.163 36.896 116.768C37.376 116.363 37.616 115.781 37.616 115.024C37.616 114.331 37.4133 113.819 37.008 113.488C36.6133 113.157 36.048 112.933 35.312 112.816L34.064 112.608C33.5093 112.512 33.0453 112.368 32.672 112.176C32.3093 111.984 32.016 111.76 31.792 111.504C31.568 111.237 31.408 110.944 31.312 110.624C31.2267 110.304 31.184 109.973 31.184 109.632C31.184 108.629 31.5093 107.883 32.16 107.392C32.8213 106.891 33.7067 106.64 34.816 106.64C35.7227 106.64 36.464 106.789 37.04 107.088C37.6267 107.376 38.096 107.776 38.448 108.288L37.776 108.88C37.456 108.432 37.0613 108.085 36.592 107.84C36.1333 107.595 35.5307 107.472 34.784 107.472C33.952 107.472 33.3013 107.653 32.832 108.016C32.3733 108.368 32.144 108.896 32.144 109.6C32.144 110.251 32.336 110.747 32.72 111.088C33.104 111.419 33.6747 111.643 34.432 111.76L35.664 111.968C36.2293 112.064 36.6987 112.213 37.072 112.416C37.4453 112.608 37.744 112.837 37.968 113.104C38.192 113.371 38.3467 113.664 38.432 113.984C38.528 114.304 38.576 114.64 38.576 114.992C38.576 116.016 38.2453 116.805 37.584 117.36C36.9227 117.915 35.9947 118.192 34.8 118.192ZM41.4657 118V106.832H48.2017V107.664H42.4257V111.92H47.9937V112.752H42.4257V117.168H48.2017V118H41.4657ZM57.5875 120.448H55.4755C55.0275 120.448 54.6968 120.325 54.4835 120.08C54.2702 119.845 54.1635 119.525 54.1635 119.12V118.16C51.9342 117.936 50.8195 116.021 50.8195 112.416C50.8195 110.496 51.1288 109.056 51.7475 108.096C52.3768 107.125 53.3368 106.64 54.6275 106.64C55.9182 106.64 56.8728 107.125 57.4915 108.096C58.1208 109.056 58.4355 110.496 58.4355 112.416C58.4355 116.021 57.3208 117.936 55.0915 118.16V119.664H57.5875V120.448ZM54.6275 117.36C55.5875 117.36 56.2915 116.997 56.7395 116.272C57.1875 115.536 57.4115 114.501 57.4115 113.168V111.664C57.4115 110.341 57.1875 109.312 56.7395 108.576C56.2915 107.84 55.5875 107.472 54.6275 107.472C53.6675 107.472 52.9635 107.84 52.5155 108.576C52.0675 109.312 51.8435 110.341 51.8435 111.664V113.168C51.8435 114.501 52.0675 115.536 52.5155 116.272C52.9635 116.997 53.6675 117.36 54.6275 117.36ZM62.0932 106.832V113.568C62.0932 114.219 62.1199 114.784 62.1732 115.264C62.2266 115.733 62.3386 116.128 62.5092 116.448C62.6799 116.757 62.9252 116.987 63.2452 117.136C63.5652 117.285 63.9972 117.36 64.5412 117.36C65.0852 117.36 65.5172 117.285 65.8372 117.136C66.1572 116.987 66.4026 116.757 66.5732 116.448C66.7439 116.128 66.8559 115.733 66.9092 115.264C66.9626 114.784 66.9892 114.219 66.9892 113.568V106.832H67.9492V113.376C67.9492 114.229 67.9012 114.96 67.8052 115.568C67.7199 116.165 67.5492 116.661 67.2932 117.056C67.0479 117.451 66.7012 117.739 66.2532 117.92C65.8159 118.101 65.2452 118.192 64.5412 118.192C63.8372 118.192 63.2612 118.101 62.8132 117.92C62.3759 117.739 62.0292 117.451 61.7732 117.056C61.5279 116.661 61.3572 116.165 61.2612 115.568C61.1759 114.96 61.1332 114.229 61.1332 113.376V106.832H62.0932ZM74.455 118.192C73.1643 118.192 72.2043 117.712 71.575 116.752C70.9563 115.781 70.647 114.336 70.647 112.416C70.647 110.496 70.9563 109.056 71.575 108.096C72.2043 107.125 73.1643 106.64 74.455 106.64C75.7457 106.64 76.7003 107.125 77.319 108.096C77.9483 109.056 78.263 110.496 78.263 112.416C78.263 114.336 77.9483 115.781 77.319 116.752C76.7003 117.712 75.7457 118.192 74.455 118.192ZM74.455 117.36C75.415 117.36 76.119 116.997 76.567 116.272C77.015 115.536 77.239 114.501 77.239 113.168V111.664C77.239 110.341 77.015 109.312 76.567 108.576C76.119 107.84 75.415 107.472 74.455 107.472C73.495 107.472 72.791 107.84 72.343 108.576C71.895 109.312 71.671 110.341 71.671 111.664V113.168C71.671 114.501 71.895 115.536 72.343 116.272C72.791 116.997 73.495 117.36 74.455 117.36ZM80.9607 118V117.232H83.8887V107.6H80.9607V106.832H87.7767V107.6H84.8487V117.232H87.7767V118H80.9607ZM97.4505 118L96.3945 114.592H92.1705L91.0985 118H90.1065L93.6585 106.832H94.9225L98.4585 118H97.4505ZM94.3305 107.856H94.2185L92.3945 113.76H96.1545L94.3305 107.856ZM114.494 118.192C111.827 118.192 110.494 116.267 110.494 112.416C110.494 108.565 111.827 106.64 114.494 106.64C114.953 106.64 115.358 106.704 115.71 106.832C116.062 106.96 116.371 107.131 116.638 107.344C116.905 107.557 117.129 107.808 117.31 108.096C117.502 108.384 117.662 108.688 117.79 109.008L116.974 109.376C116.867 109.109 116.739 108.859 116.59 108.624C116.451 108.389 116.281 108.187 116.078 108.016C115.886 107.845 115.657 107.712 115.39 107.616C115.134 107.52 114.835 107.472 114.494 107.472C113.491 107.472 112.745 107.84 112.254 108.576C111.763 109.301 111.518 110.331 111.518 111.664V113.168C111.518 114.501 111.763 115.536 112.254 116.272C112.745 116.997 113.491 117.36 114.494 117.36C114.835 117.36 115.134 117.312 115.39 117.216C115.657 117.12 115.886 116.987 116.078 116.816C116.281 116.645 116.451 116.448 116.59 116.224C116.739 115.989 116.867 115.733 116.974 115.456L117.79 115.824C117.662 116.144 117.502 116.448 117.31 116.736C117.129 117.024 116.905 117.275 116.638 117.488C116.371 117.701 116.062 117.872 115.71 118C115.358 118.128 114.953 118.192 114.494 118.192ZM127.192 118L126.136 114.592H121.912L120.84 118H119.848L123.4 106.832H124.664L128.2 118H127.192ZM124.072 107.856H123.96L122.136 113.76H125.896L124.072 107.856ZM130.689 118V106.832H134.689C135.681 106.832 136.433 107.115 136.945 107.68C137.457 108.235 137.713 108.997 137.713 109.968C137.713 110.939 137.457 111.707 136.945 112.272C136.433 112.827 135.681 113.104 134.689 113.104H131.649V118H130.689ZM131.649 112.272H134.673C135.345 112.272 135.852 112.091 136.193 111.728C136.535 111.365 136.705 110.907 136.705 110.352V109.584C136.705 109.029 136.535 108.571 136.193 108.208C135.852 107.845 135.345 107.664 134.673 107.664H131.649V112.272ZM140.443 118V117.232H143.371V107.6H140.443V106.832H147.259V107.6H144.331V117.232H147.259V118H140.443ZM154.245 107.664V118H153.285V107.664H149.461V106.832H158.069V107.664H154.245ZM166.847 118L165.791 114.592H161.567L160.495 118H159.503L163.055 106.832H164.319L167.855 118H166.847ZM163.727 107.856H163.615L161.791 113.76H165.551L163.727 107.856ZM170.872 118V106.832H171.832V117.168H177.304V118H170.872Z" fill="black"/>
<defs>
<clipPath id="clip0_3029_62758">
<rect width="225" height="30" fill="white" transform="translate(30 35)"/>
</clipPath>
</defs>
</svg>
