<svg width="400" height="400" viewBox="0 0 400 400" fill="none" xmlns="http://www.w3.org/2000/svg">
<rect width="400" height="400" rx="20" fill="#EDE9E5"/>
<path d="M124.42 74.6561L121.537 69.6651C122.885 67.0822 122.885 64.0377 122.885 60.0324C122.885 55.0414 122.885 51.2982 120.003 48.2661C119.009 47.1824 117.791 46.3293 116.433 45.7667C115.075 45.2041 113.61 44.9457 112.142 45.0095C110.677 44.9772 109.222 45.25 107.869 45.8107C106.515 46.3714 105.294 47.2076 104.281 48.2661C101.399 51.1609 101.399 54.8293 101.399 59.9825C101.399 65.1357 101.249 68.7168 104.281 71.7363C105.286 72.8108 106.506 73.6612 107.862 74.2318C109.218 74.7877 110.677 75.0472 112.142 74.993C112.961 74.981 113.777 74.8806 114.575 74.6935L124.42 74.6561ZM108.374 68.2302C107.325 66.9824 107.026 65.6348 107.026 59.9825C107.026 54.3302 107.388 52.9452 108.374 51.7349C108.853 51.2562 109.421 50.8749 110.046 50.6119C110.665 50.3481 111.331 50.2122 112.005 50.2126C112.682 50.2136 113.352 50.3493 113.976 50.6119C114.597 50.8752 115.16 51.2566 115.636 51.7349C116.684 52.9826 116.983 54.3302 116.983 59.9825C116.983 65.6348 116.684 67.0074 115.636 68.2302C115.172 68.7223 114.611 69.1131 113.988 69.3781C113.357 69.6276 112.683 69.7505 112.005 69.7399C111.329 69.7535 110.657 69.626 110.033 69.3656C109.409 69.1036 108.844 68.7173 108.374 68.2302Z" fill="black"/>
<path d="M190.775 45.3086H196.352V74.6557H190.775V45.3086Z" fill="black"/>
<path d="M55.5934 74.9565C51.2388 74.9565 47.8948 74.0456 45 71.1383L48.631 67.4699C49.5691 68.3253 50.6674 68.9862 51.8624 69.4145C53.0575 69.8429 54.3256 70.0301 55.5934 69.9654C58.9249 69.9654 60.7341 68.7177 60.7341 66.2971C60.7513 65.8465 60.6793 65.397 60.522 64.9744C60.3697 64.5556 60.1317 64.1732 59.8233 63.8515C59.1014 63.2312 58.2016 62.8555 57.2529 62.7784L53.7343 62.2918C51.6465 62.1141 49.6805 61.2345 48.1568 59.7963C47.4561 59.0184 46.9136 58.1114 46.5597 57.1261C46.1872 56.1258 46.0216 55.0604 46.0731 53.9942C46.0481 48.8285 49.8288 45.1602 56.2298 45.1602C60.1602 45.1602 63.1922 46.0585 65.6253 48.5166L61.9569 52.0477C61.1663 51.3161 60.2324 50.7564 59.2144 50.4042C58.1964 50.052 57.1163 49.9148 56.0426 50.0014C53.0106 50.0014 51.5133 51.6984 51.5133 53.7447C51.5373 54.5391 51.8578 55.2958 52.4116 55.8659C53.1959 56.5165 54.1389 56.9471 55.1442 57.1136L58.6254 57.5628C60.7054 57.6191 62.6915 58.441 64.2029 59.8711C64.9771 60.7109 65.5791 61.6944 65.9747 62.7659C66.3617 63.8495 66.5354 64.9978 66.4863 66.1473C66.4863 71.7747 61.6575 74.9939 55.5809 74.9939" fill="black"/>
<path d="M74.6343 74.6557V45.3086H93.8372V50.2996H80.3615V57.2246H91.8408V62.4776H80.3739V69.6772H93.8496V74.6682H74.6343" fill="black"/>
<path d="M142.088 74.9552C136.174 74.9552 131.345 70.8376 131.345 64.5739V45.3086H137.122V64.3992C137.122 67.7681 139.106 69.7396 142.113 69.7396C145.12 69.7396 147.104 67.7307 147.104 64.3992V45.3086H152.681V64.5489C152.681 70.7877 148.04 74.9302 142.125 74.9302" fill="black"/>
<path d="M179.582 71.7363C178.588 72.8178 177.369 73.6685 176.011 74.229C174.653 74.7894 173.189 75.0459 171.721 74.9805C170.259 75.0204 168.804 74.7522 167.452 74.1933C166.1 73.6343 164.881 72.7972 163.873 71.7363C161.041 68.8291 161.041 65.1607 161.041 59.9825C161.041 54.8043 160.891 51.2482 163.936 48.2287C164.92 47.1569 166.127 46.3135 167.472 45.7574C168.817 45.2013 170.267 44.946 171.721 45.0095C173.183 44.989 174.634 45.266 175.985 45.8237C177.337 46.3814 178.56 47.2082 179.582 48.2536C182.465 51.1609 182.465 54.8293 182.465 60.0075C182.465 65.1856 182.465 68.7168 179.582 71.7363ZM175.352 51.7723C174.878 51.2936 174.313 50.9136 173.691 50.6542C173.069 50.3949 172.402 50.2614 171.728 50.2614C171.054 50.2614 170.386 50.3949 169.764 50.6542C169.142 50.9136 168.577 51.2936 168.103 51.7723C167.042 53.0201 166.755 54.3676 166.755 60.0199C166.755 65.6723 167.042 67.0448 168.103 68.2551C168.576 68.7369 169.14 69.1196 169.762 69.3808C170.385 69.6421 171.053 69.7766 171.728 69.7766C172.403 69.7766 173.071 69.6421 173.693 69.3808C174.316 69.1196 174.88 68.7369 175.352 68.2551C176.401 67.0073 176.7 65.6723 176.7 60.0199C176.7 54.3676 176.438 52.9452 175.352 51.7349V51.7723Z" fill="black"/>
<path d="M223.154 74.6557L221.494 69.4651H211.2L209.404 74.6557H203.464L214.095 45.3086H218.437L229.031 74.6557H223.154ZM216.329 53.8557L212.698 64.5489H219.96L216.329 53.8557Z" fill="black"/>
<path d="M262.333 45.3086H269.595V52.6454H262.333V45.3086Z" fill="black"/>
<path d="M244.178 68.3421V45.3086H240.547V72.0479L244.178 68.3421Z" fill="black"/>
<path d="M246.724 70.9863L243.093 74.6547H269.595V70.9863H246.724Z" fill="black"/>
<path d="M251.441 61.0427V45.3086H247.81V64.7111L251.441 61.0427Z" fill="black"/>
<path d="M253.986 63.6504L250.343 67.3188H269.596V63.6504H253.986Z" fill="black"/>
<path d="M258.689 53.7434V45.3086H255.058V57.3743L258.689 53.7434Z" fill="black"/>
<path d="M261.248 56.3145L257.629 59.9828H269.595V56.3145H261.248Z" fill="black"/>
<path d="M49.8 358.192C49.2987 358.192 48.8507 358.144 48.456 358.048C48.0613 357.952 47.704 357.824 47.384 357.664C47.064 357.493 46.776 357.291 46.52 357.056C46.2747 356.821 46.0507 356.565 45.848 356.288L46.552 355.712C46.968 356.245 47.4267 356.656 47.928 356.944C48.4293 357.221 49.064 357.36 49.832 357.36C50.728 357.36 51.416 357.163 51.896 356.768C52.376 356.363 52.616 355.781 52.616 355.024C52.616 354.331 52.4133 353.819 52.008 353.488C51.6133 353.157 51.048 352.933 50.312 352.816L49.064 352.608C48.5093 352.512 48.0453 352.368 47.672 352.176C47.3093 351.984 47.016 351.76 46.792 351.504C46.568 351.237 46.408 350.944 46.312 350.624C46.2267 350.304 46.184 349.973 46.184 349.632C46.184 348.629 46.5093 347.883 47.16 347.392C47.8213 346.891 48.7067 346.64 49.816 346.64C50.7227 346.64 51.464 346.789 52.04 347.088C52.6267 347.376 53.096 347.776 53.448 348.288L52.776 348.88C52.456 348.432 52.0613 348.085 51.592 347.84C51.1333 347.595 50.5307 347.472 49.784 347.472C48.952 347.472 48.3013 347.653 47.832 348.016C47.3733 348.368 47.144 348.896 47.144 349.6C47.144 350.251 47.336 350.747 47.72 351.088C48.104 351.419 48.6747 351.643 49.432 351.76L50.664 351.968C51.2293 352.064 51.6987 352.213 52.072 352.416C52.4453 352.608 52.744 352.837 52.968 353.104C53.192 353.371 53.3467 353.664 53.432 353.984C53.528 354.304 53.576 354.64 53.576 354.992C53.576 356.016 53.2453 356.805 52.584 357.36C51.9227 357.915 50.9947 358.192 49.8 358.192ZM56.4657 358V346.832H63.2017V347.664H57.4257V351.92H62.9937V352.752H57.4257V357.168H63.2017V358H56.4657ZM72.5875 360.448H70.4755C70.0275 360.448 69.6968 360.325 69.4835 360.08C69.2702 359.845 69.1635 359.525 69.1635 359.12V358.16C66.9342 357.936 65.8195 356.021 65.8195 352.416C65.8195 350.496 66.1288 349.056 66.7475 348.096C67.3768 347.125 68.3368 346.64 69.6275 346.64C70.9182 346.64 71.8728 347.125 72.4915 348.096C73.1208 349.056 73.4355 350.496 73.4355 352.416C73.4355 356.021 72.3208 357.936 70.0915 358.16V359.664H72.5875V360.448ZM69.6275 357.36C70.5875 357.36 71.2915 356.997 71.7395 356.272C72.1875 355.536 72.4115 354.501 72.4115 353.168V351.664C72.4115 350.341 72.1875 349.312 71.7395 348.576C71.2915 347.84 70.5875 347.472 69.6275 347.472C68.6675 347.472 67.9635 347.84 67.5155 348.576C67.0675 349.312 66.8435 350.341 66.8435 351.664V353.168C66.8435 354.501 67.0675 355.536 67.5155 356.272C67.9635 356.997 68.6675 357.36 69.6275 357.36ZM77.0932 346.832V353.568C77.0932 354.219 77.1199 354.784 77.1732 355.264C77.2266 355.733 77.3386 356.128 77.5092 356.448C77.6799 356.757 77.9252 356.987 78.2452 357.136C78.5652 357.285 78.9972 357.36 79.5412 357.36C80.0852 357.36 80.5172 357.285 80.8372 357.136C81.1572 356.987 81.4026 356.757 81.5732 356.448C81.7439 356.128 81.8559 355.733 81.9092 355.264C81.9626 354.784 81.9892 354.219 81.9892 353.568V346.832H82.9492V353.376C82.9492 354.229 82.9012 354.96 82.8052 355.568C82.7199 356.165 82.5492 356.661 82.2932 357.056C82.0479 357.451 81.7012 357.739 81.2532 357.92C80.8159 358.101 80.2452 358.192 79.5412 358.192C78.8372 358.192 78.2612 358.101 77.8132 357.92C77.3759 357.739 77.0292 357.451 76.7732 357.056C76.5279 356.661 76.3572 356.165 76.2612 355.568C76.1759 354.96 76.1332 354.229 76.1332 353.376V346.832H77.0932ZM89.455 358.192C88.1643 358.192 87.2043 357.712 86.575 356.752C85.9563 355.781 85.647 354.336 85.647 352.416C85.647 350.496 85.9563 349.056 86.575 348.096C87.2043 347.125 88.1643 346.64 89.455 346.64C90.7457 346.64 91.7003 347.125 92.319 348.096C92.9483 349.056 93.263 350.496 93.263 352.416C93.263 354.336 92.9483 355.781 92.319 356.752C91.7003 357.712 90.7457 358.192 89.455 358.192ZM89.455 357.36C90.415 357.36 91.119 356.997 91.567 356.272C92.015 355.536 92.239 354.501 92.239 353.168V351.664C92.239 350.341 92.015 349.312 91.567 348.576C91.119 347.84 90.415 347.472 89.455 347.472C88.495 347.472 87.791 347.84 87.343 348.576C86.895 349.312 86.671 350.341 86.671 351.664V353.168C86.671 354.501 86.895 355.536 87.343 356.272C87.791 356.997 88.495 357.36 89.455 357.36ZM95.9607 358V357.232H98.8887V347.6H95.9607V346.832H102.777V347.6H99.8487V357.232H102.777V358H95.9607ZM112.45 358L111.394 354.592H107.17L106.098 358H105.106L108.658 346.832H109.922L113.458 358H112.45ZM109.33 347.856H109.218L107.394 353.76H111.154L109.33 347.856ZM129.494 358.192C126.827 358.192 125.494 356.267 125.494 352.416C125.494 348.565 126.827 346.64 129.494 346.64C129.953 346.64 130.358 346.704 130.71 346.832C131.062 346.96 131.371 347.131 131.638 347.344C131.905 347.557 132.129 347.808 132.31 348.096C132.502 348.384 132.662 348.688 132.79 349.008L131.974 349.376C131.867 349.109 131.739 348.859 131.59 348.624C131.451 348.389 131.281 348.187 131.078 348.016C130.886 347.845 130.657 347.712 130.39 347.616C130.134 347.52 129.835 347.472 129.494 347.472C128.491 347.472 127.745 347.84 127.254 348.576C126.763 349.301 126.518 350.331 126.518 351.664V353.168C126.518 354.501 126.763 355.536 127.254 356.272C127.745 356.997 128.491 357.36 129.494 357.36C129.835 357.36 130.134 357.312 130.39 357.216C130.657 357.12 130.886 356.987 131.078 356.816C131.281 356.645 131.451 356.448 131.59 356.224C131.739 355.989 131.867 355.733 131.974 355.456L132.79 355.824C132.662 356.144 132.502 356.448 132.31 356.736C132.129 357.024 131.905 357.275 131.638 357.488C131.371 357.701 131.062 357.872 130.71 358C130.358 358.128 129.953 358.192 129.494 358.192ZM142.192 358L141.136 354.592H136.912L135.84 358H134.848L138.4 346.832H139.664L143.2 358H142.192ZM139.072 347.856H138.96L137.136 353.76H140.896L139.072 347.856ZM145.689 358V346.832H149.689C150.681 346.832 151.433 347.115 151.945 347.68C152.457 348.235 152.713 348.997 152.713 349.968C152.713 350.939 152.457 351.707 151.945 352.272C151.433 352.827 150.681 353.104 149.689 353.104H146.649V358H145.689ZM146.649 352.272H149.673C150.345 352.272 150.852 352.091 151.193 351.728C151.535 351.365 151.705 350.907 151.705 350.352V349.584C151.705 349.029 151.535 348.571 151.193 348.208C150.852 347.845 150.345 347.664 149.673 347.664H146.649V352.272ZM155.443 358V357.232H158.371V347.6H155.443V346.832H162.259V347.6H159.331V357.232H162.259V358H155.443ZM169.245 347.664V358H168.285V347.664H164.461V346.832H173.069V347.664H169.245ZM181.847 358L180.791 354.592H176.567L175.495 358H174.503L178.055 346.832H179.319L182.855 358H181.847ZM178.727 347.856H178.615L176.791 353.76H180.551L178.727 347.856ZM185.872 358V346.832H186.832V357.168H192.304V358H185.872Z" fill="black"/>
</svg>
