<svg width="225" height="30" viewBox="0 0 225 30" fill="none" xmlns="http://www.w3.org/2000/svg">
<path d="M79.4197 29.6424L76.5374 24.6514C77.8849 22.0685 77.8849 19.024 77.8849 15.0188C77.8849 10.0278 77.8849 6.2845 75.0026 3.25246C74.0095 2.16877 72.7911 1.31566 71.4331 0.75305C70.0751 0.190443 68.6104 -0.0680142 67.1418 -0.00416873C65.6773 -0.0364859 64.2221 0.236369 62.8687 0.797037C61.5154 1.3577 60.2936 2.19391 59.281 3.25246C56.3987 6.14724 56.3987 9.81563 56.3987 14.9688C56.3987 20.1221 56.2489 23.7031 59.281 26.7227C60.2858 27.7971 61.5061 28.6475 62.862 29.2182C64.2181 29.774 65.6773 30.0335 67.1418 29.9793C67.9613 29.9673 68.777 29.8669 69.5749 29.6798L79.4197 29.6424ZM63.3736 23.2165C62.3255 21.9687 62.026 20.6212 62.026 14.9688C62.026 9.31653 62.3879 7.93153 63.3736 6.72121C63.8533 6.24254 64.421 5.86121 65.0456 5.59823C65.665 5.33438 66.3313 5.19856 67.0046 5.19895C67.6817 5.19994 68.3518 5.33567 68.976 5.59823C69.5967 5.8615 70.1603 6.2429 70.6355 6.72121C71.6836 7.96896 71.9831 9.31653 71.9831 14.9688C71.9831 20.6212 71.6836 21.9937 70.6355 23.2165C70.1715 23.7086 69.6108 24.0994 68.9885 24.3644C68.3573 24.6139 67.6832 24.7368 67.0046 24.7263C66.3285 24.7398 65.6571 24.6123 65.0331 24.3519C64.4086 24.09 63.844 23.7036 63.3736 23.2165Z" fill="black"/>
<path d="M145.775 0.294922H151.352V29.642H145.775V0.294922Z" fill="black"/>
<path d="M10.5934 29.9428C6.23876 29.9428 2.89478 29.0319 0 26.1247L3.63096 22.4563C4.56906 23.3116 5.66738 23.9725 6.86242 24.4008C8.05747 24.8292 9.32556 25.0164 10.5934 24.9518C13.9249 24.9518 15.7341 23.704 15.7341 21.2834C15.7513 20.8328 15.6793 20.3833 15.522 19.9608C15.3697 19.542 15.1317 19.1595 14.8233 18.8378C14.1014 18.2175 13.2016 17.8419 12.2529 17.7647L8.73426 17.2781C6.64652 17.1005 4.68054 16.2208 3.15681 14.7826C2.45607 14.0047 1.9136 13.0978 1.55969 12.1124C1.1872 11.1122 1.02165 10.0467 1.07307 8.98056C1.04811 3.81487 4.8288 0.146484 11.2298 0.146484C15.1602 0.146484 18.1922 1.04487 20.6253 3.50293L16.9569 7.03407C16.1663 6.3024 15.2324 5.74275 14.2144 5.39052C13.1964 5.03829 12.1163 4.90115 11.0426 4.98776C8.01056 4.98776 6.51326 6.6847 6.51326 8.73101C6.53727 9.52546 6.85776 10.2822 7.41164 10.8522C8.1959 11.5028 9.13892 11.9334 10.1442 12.0999L13.6254 12.5491C15.7054 12.6054 17.6915 13.4274 19.2029 14.8575C19.9771 15.6973 20.5791 16.6808 20.9747 17.7523C21.3617 18.8359 21.5354 19.9841 21.4863 21.1337C21.4863 26.761 16.6575 29.9802 10.5809 29.9802" fill="black"/>
<path d="M29.6343 29.642V0.294922H48.8372V5.28593H35.3615V12.2109H46.8408V17.464H35.3739V24.6635H48.8496V29.6545H29.6343" fill="black"/>
<path d="M97.0879 29.9415C91.1735 29.9415 86.3447 25.8239 86.3447 19.5602V0.294922H92.1218V19.3855C92.1218 22.7544 94.1057 24.7259 97.1128 24.7259C100.12 24.7259 102.104 22.717 102.104 19.3855V0.294922H107.681V19.5352C107.681 25.774 103.04 29.9165 97.1253 29.9165" fill="black"/>
<path d="M134.582 26.7227C133.588 27.8041 132.369 28.6549 131.011 29.2153C129.653 29.7757 128.189 30.0322 126.721 29.9668C125.259 30.0067 123.804 29.7385 122.452 29.1796C121.1 28.6207 119.881 27.7836 118.873 26.7227C116.041 23.8154 116.041 20.147 116.041 14.9688C116.041 9.79067 115.891 6.23458 118.936 3.21502C119.92 2.14327 121.127 1.2998 122.472 0.743713C123.817 0.187623 125.267 -0.0676364 126.721 -0.00417795C128.183 -0.024676 129.634 0.25235 130.985 0.810054C132.337 1.36776 133.56 2.19449 134.582 3.23997C137.465 6.14723 137.465 9.81562 137.465 14.9938C137.465 20.172 137.465 23.7031 134.582 26.7227ZM130.352 6.75863C129.878 6.27989 129.313 5.89989 128.691 5.64055C128.069 5.38122 127.402 5.2477 126.728 5.2477C126.054 5.2477 125.386 5.38122 124.764 5.64055C124.142 5.89989 123.577 6.27989 123.103 6.75863C122.042 8.00638 121.755 9.35395 121.755 15.0063C121.755 20.6586 122.042 22.0311 123.103 23.2414C123.576 23.7232 124.14 24.1059 124.762 24.3671C125.385 24.6284 126.053 24.7629 126.728 24.7629C127.403 24.7629 128.071 24.6284 128.693 24.3671C129.316 24.1059 129.88 23.7232 130.352 23.2414C131.401 21.9937 131.7 20.6586 131.7 15.0063C131.7 9.35395 131.438 7.93152 130.352 6.7212V6.75863Z" fill="black"/>
<path d="M178.154 29.642L176.494 24.4514H166.2L164.404 29.642H158.464L169.095 0.294922H173.437L184.031 29.642H178.154ZM171.329 8.84202L167.698 19.5352H174.96L171.329 8.84202Z" fill="black"/>
<path d="M217.333 0.294922H224.595V7.6317H217.333V0.294922Z" fill="black"/>
<path d="M199.178 23.3284V0.294922H195.547V27.0342L199.178 23.3284Z" fill="black"/>
<path d="M201.724 25.9727L198.093 29.641H224.595V25.9727H201.724Z" fill="black"/>
<path d="M206.441 16.0291V0.294922H202.81V19.6975L206.441 16.0291Z" fill="black"/>
<path d="M208.986 18.6367L205.343 22.3051H224.596V18.6367H208.986Z" fill="black"/>
<path d="M213.689 8.72972V0.294922H210.058V12.3607L213.689 8.72972Z" fill="black"/>
<path d="M216.248 11.3008L212.629 14.9692H224.595V11.3008H216.248Z" fill="black"/>
</svg>
