<svg width="40" height="40" viewBox="0 0 40 40" fill="none" xmlns="http://www.w3.org/2000/svg">
<rect width="40" height="40" rx="8" fill="white" fill-opacity="0.03"/>
<rect x="0.5" y="0.5" width="39" height="39" rx="7.5" stroke="white" stroke-opacity="0.1"/>
<path d="M14.4824 29.5615C17.0434 29.5615 18.2855 28.2763 18.2855 26.7727C18.2855 23.4697 13.0739 24.6136 13.0739 22.9557C13.0739 22.3902 13.5477 21.9275 14.777 21.9275C15.5709 21.9275 16.4288 22.1588 17.2611 22.6344L17.9014 21.0536C17.0691 20.5267 15.9166 20.2568 14.7898 20.2568C12.2416 20.2568 11.0123 21.5291 11.0123 23.0585C11.0123 26.4 16.2239 25.2433 16.2239 26.9269C16.2239 27.4795 15.7245 27.8908 14.4952 27.8908C13.4196 27.8908 12.2928 27.5052 11.5373 26.9526L10.833 28.5205C11.6269 29.1374 13.0611 29.5615 14.4824 29.5615Z" fill="white"/>
<path d="M24.074 27.7366V25.6546H28.2357V24.0352H24.074V22.0817H28.7863V20.411H22.0124V29.4073H28.9528V27.7366H24.074Z" fill="white"/>
<path d="M19.7893 18.2978L19.7658 10.0705H18.2026L15.4837 15.1832L12.7371 10.0705H11.1621V18.2978H12.9486V13.4672L15.0253 17.4281H15.8833L17.9911 13.3614L18.0028 18.2978H19.7893Z" fill="white"/>
<path d="M25.4652 18.4389C27.8041 18.4389 28.9494 17.0285 28.9494 14.6073V10H27.0689V14.5368C27.0689 16.1 26.6405 16.8169 25.4769 16.8169C24.3251 16.8169 23.8107 16.1705 23.8107 14.6073V10.0705H21.9067V14.6778C21.9067 17.099 23.1262 18.4389 25.4652 18.4389Z" fill="white"/>
</svg>
