<svg width="40" height="40" viewBox="0 0 40 40" fill="none" xmlns="http://www.w3.org/2000/svg">
<rect width="40" height="40" rx="8" fill="#070707"/>
<rect x="0.5" y="0.5" width="39" height="39" rx="7.5" stroke="white" stroke-opacity="0.1"/>
<path d="M14.4834 29.5615C17.0444 29.5615 18.2865 28.2763 18.2865 26.7726C18.2865 23.4697 13.0749 24.6135 13.0749 22.9556C13.0749 22.3901 13.5487 21.9275 14.7779 21.9275C15.5718 21.9275 16.4298 22.1588 17.2621 22.6343L17.9024 21.0535C17.07 20.5266 15.9176 20.2567 14.7907 20.2567C12.2425 20.2567 11.0133 21.529 11.0133 23.0584C11.0133 26.3999 16.2249 25.2432 16.2249 26.9268C16.2249 27.4795 15.7255 27.8907 14.4962 27.8907C13.4206 27.8907 12.2938 27.5052 11.5383 26.9525L10.834 28.5205C11.6279 29.1373 13.0621 29.5615 14.4834 29.5615Z" fill="white"/>
<path d="M24.075 27.7365V25.6545H28.2367V24.0352H24.075V22.0817H28.7873V20.4109H22.0134V29.4072H28.9537V27.7365H24.075Z" fill="white"/>
<path d="M19.7893 18.2978L19.7658 10.0705H18.2026L15.4837 15.1832L12.7371 10.0705H11.1621V18.2978H12.9486V13.4672L15.0253 17.4281H15.8833L17.9911 13.3614L18.0028 18.2978H19.7893Z" fill="white"/>
<path d="M25.4652 18.4389C27.8041 18.4389 28.9494 17.0285 28.9494 14.6073V10H27.0689V14.5368C27.0689 16.1 26.6405 16.8169 25.4769 16.8169C24.3251 16.8169 23.8107 16.1705 23.8107 14.6073V10.0705H21.9067V14.6778C21.9067 17.099 23.1262 18.4389 25.4652 18.4389Z" fill="white"/>
</svg>
