<svg width="48" height="48" viewBox="0 0 48 48" fill="none" xmlns="http://www.w3.org/2000/svg">
<rect y="0.833008" width="48" height="48" rx="10.6667" fill="#FAFAFA"/>
<rect x="0.666667" y="1.49967" width="46.6667" height="46.6667" rx="10" stroke="black" stroke-opacity="0.1" stroke-width="1.33333"/>
<path d="M17.3793 36.3068C20.4525 36.3068 21.943 34.7646 21.943 32.9602C21.943 28.9967 15.6891 30.3692 15.6891 28.3798C15.6891 27.7012 16.2576 27.146 17.7327 27.146C18.6854 27.146 19.715 27.4236 20.7137 27.9942L21.482 26.0973C20.4833 25.465 19.1003 25.1411 17.7481 25.1411C14.6903 25.1411 13.2151 26.6679 13.2151 28.5032C13.2151 32.5129 19.4691 31.1249 19.4691 33.1452C19.4691 33.8084 18.8698 34.3019 17.3947 34.3019C16.1039 34.3019 14.7517 33.8392 13.8451 33.1761L13 35.0576C13.9527 35.7979 15.6737 36.3068 17.3793 36.3068Z" fill="#101426"/>
<path d="M28.8892 34.1168V31.6184H33.8832V29.6752H28.8892V27.3311H34.5439V25.3262H26.4153V36.1217H34.7437V34.1168H28.8892Z" fill="#101426"/>
<path d="M23.7472 22.7904L23.719 12.9176H21.8432L18.5804 19.0529L15.2845 12.9176H13.3945V22.7904H15.5383V16.9937L18.0304 21.7467H19.06L21.5893 16.8667L21.6034 22.7904H23.7472Z" fill="#101426"/>
<path d="M30.5582 22.9597C33.3649 22.9597 34.7393 21.2672 34.7393 18.3618V12.833H32.4827V18.2772C32.4827 20.153 31.9686 21.0133 30.5723 21.0133C29.1901 21.0133 28.5729 20.2376 28.5729 18.3618V12.9176H26.288V18.4464C26.288 21.3518 27.7515 22.9597 30.5582 22.9597Z" fill="#101426"/>
</svg>
