<svg width="56" height="56" viewBox="0 0 56 56" fill="none" xmlns="http://www.w3.org/2000/svg">
<rect width="56" height="56" rx="11.2" fill="#FAFAFA"/>
<rect x="0.7" y="0.7" width="54.6" height="54.6" rx="10.5" stroke="black" stroke-opacity="0.1" stroke-width="1.4"/>
<path d="M20.2757 41.386C23.8611 41.386 25.6 39.5867 25.6 37.4816C25.6 32.8575 18.3037 34.4589 18.3037 32.1378C18.3037 31.3461 18.967 30.6984 20.688 30.6984C21.7995 30.6984 23.0006 31.0223 24.1659 31.688L25.0622 29.4749C23.897 28.7372 22.2835 28.3594 20.706 28.3594C17.1385 28.3594 15.4175 30.1406 15.4175 32.2818C15.4175 36.9598 22.7138 35.3405 22.7138 37.6975C22.7138 38.4712 22.0146 39.047 20.2936 39.047C18.7878 39.047 17.2102 38.5072 16.1525 37.7335L15.1665 39.9286C16.278 40.7923 18.2858 41.386 20.2757 41.386Z" fill="#101426"/>
<path d="M33.704 38.8311V35.9163H39.5302V33.6492H33.704V30.9143H40.3011V28.5753H30.8177V41.1701H40.5342V38.8311H33.704Z" fill="#101426"/>
<path d="M27.7053 25.617L27.6724 14.0987H25.4839L21.6774 21.2565L17.8321 14.0987H15.6272V25.617H18.1283V18.8541L21.0357 24.3993H22.2369L25.1877 18.706L25.2042 25.617H27.7053Z" fill="#101426"/>
<path d="M35.6515 25.8144C38.9259 25.8144 40.5295 23.8399 40.5295 20.4502V14H37.8967V20.3515C37.8967 22.54 37.2969 23.5437 35.6679 23.5437C34.0554 23.5437 33.3353 22.6387 33.3353 20.4502V14.0987H30.6696V20.5489C30.6696 23.9386 32.377 25.8144 35.6515 25.8144Z" fill="#101426"/>
</svg>
