<svg width="15" height="14" viewBox="0 0 15 14" fill="none" xmlns="http://www.w3.org/2000/svg">
<path d="M4.46219 3.41343H10.8339V1.1576C10.8339 0.514488 10.3095 0 9.67633 0H1.1576C0.524382 0 0 0.524382 0 1.1576V9.67633C0 10.3194 0.524382 10.8339 1.1576 10.8339H3.75972V4.10601C3.75972 3.73004 4.07632 3.41343 4.46219 3.41343Z" fill="white"/>
<path d="M13.1887 3.41309H10.834V10.141C10.834 10.5269 10.5174 10.8435 10.1315 10.8435H3.75977V12.8421C3.75977 13.4852 4.28415 13.9997 4.91736 13.9997H13.1788C13.822 13.9997 14.3364 13.4753 14.3364 12.8421V4.57068C14.3463 3.93747 13.822 3.41309 13.1887 3.41309Z" fill="white"/>
<path d="M9.61668 6.31245H7.86545V4.55132C7.86545 4.40291 7.74672 4.28418 7.59831 4.28418H6.75732C6.60891 4.28418 6.49018 4.40291 6.49018 4.55132V6.31245H4.72905C4.58064 6.31245 4.46191 6.43118 4.46191 6.57959V7.42058C4.46191 7.56899 4.58064 7.68771 4.72905 7.68771H6.48029V9.44884C6.48029 9.59725 6.59902 9.71598 6.74743 9.71598H7.58842C7.73683 9.71598 7.85555 9.59725 7.85555 9.44884V7.68771H9.61668C9.76509 7.68771 9.88382 7.56899 9.88382 7.42058V6.57959C9.88382 6.43118 9.76509 6.31245 9.61668 6.31245Z" fill="white"/>
</svg>
