<svg width="327" height="286" viewBox="0 0 327 286" fill="none" xmlns="http://www.w3.org/2000/svg">
<g opacity="0.8">
<path d="M26.5635 152.457C36.5885 201.537 104.857 228.246 179.046 212.113C253.235 195.981 305.251 143.116 295.226 94.0363C285.201 44.9568 216.932 18.2479 142.743 34.3804C68.5537 50.5129 16.5385 103.378 26.5635 152.457Z" stroke="url(#paint0_radial_2666_16434)" stroke-width="8.72189"/>
<path d="M26.5635 152.457C36.5885 201.537 104.857 228.246 179.046 212.113C253.235 195.981 305.251 143.116 295.226 94.0363C285.201 44.9568 216.932 18.2479 142.743 34.3804C68.5537 50.5129 16.5385 103.378 26.5635 152.457Z" stroke="url(#paint1_radial_2666_16434)" stroke-width="8.72189"/>
<path d="M85.8194 168.384C98.9553 232.703 145.965 276.936 190.819 267.181C235.673 257.426 261.385 197.377 248.249 133.058C235.114 68.7397 188.104 24.5071 143.25 34.262C98.3961 44.0169 72.6836 104.065 85.8194 168.384Z" stroke="url(#paint2_radial_2666_16434)" stroke-width="8.72189"/>
<path d="M6.71548 144.538C-1.57153 157.526 1.98332 174.894 14.6555 183.333C27.3276 191.771 44.3184 188.083 52.6054 175.096C60.8924 162.109 57.3375 144.74 44.6654 136.302C31.9933 127.863 15.0025 131.551 6.71548 144.538Z" fill="url(#paint3_linear_2666_16434)"/>
<path d="M6.71548 144.538C-1.57153 157.526 1.98332 174.894 14.6555 183.333C27.3276 191.771 44.3184 188.083 52.6054 175.096C60.8924 162.109 57.3375 144.74 44.6654 136.302C31.9933 127.863 15.0025 131.551 6.71548 144.538Z" fill="url(#paint4_linear_2666_16434)"/>
<path d="M120.006 19.1956C111.719 32.1828 115.274 49.5516 127.946 57.9898C140.618 66.4281 157.609 62.7404 165.896 49.7532C174.183 36.766 170.628 19.3972 157.956 10.959C145.284 2.52072 128.293 6.20837 120.006 19.1956Z" fill="url(#paint5_linear_2666_16434)"/>
<path d="M272.872 87.3821C264.585 100.369 268.14 117.738 280.812 126.176C293.484 134.615 310.475 130.927 318.762 117.94C327.049 104.953 323.494 87.5838 310.822 79.1455C298.15 70.7072 281.159 74.3949 272.872 87.3821Z" fill="url(#paint6_linear_2666_16434)"/>
<path d="M272.872 87.3821C264.585 100.369 268.14 117.738 280.812 126.176C293.484 134.615 310.475 130.927 318.762 117.94C327.049 104.953 323.494 87.5838 310.822 79.1455C298.15 70.7072 281.159 74.3949 272.872 87.3821Z" fill="url(#paint7_linear_2666_16434)"/>
<path d="M89.7296 207.61C81.4426 220.597 84.9974 237.966 97.6696 246.404C110.342 254.843 127.333 251.155 135.62 238.168C143.907 225.181 140.352 207.812 127.68 199.374C115.007 190.935 98.0166 194.623 89.7296 207.61Z" fill="url(#paint8_linear_2666_16434)"/>
<path d="M89.7296 207.61C81.4426 220.597 84.9974 237.966 97.6696 246.404C110.342 254.843 127.333 251.155 135.62 238.168C143.907 225.181 140.352 207.812 127.68 199.374C115.007 190.935 98.0166 194.623 89.7296 207.61Z" fill="url(#paint9_linear_2666_16434)"/>
<path d="M222.556 179.183C214.269 192.171 217.824 209.539 230.496 217.978C243.168 226.416 260.159 222.728 268.446 209.741C276.733 196.754 273.178 179.385 260.506 170.947C247.834 162.509 230.843 166.196 222.556 179.183Z" fill="url(#paint10_linear_2666_16434)"/>
<path d="M222.556 179.183C214.269 192.171 217.824 209.539 230.496 217.978C243.168 226.416 260.159 222.728 268.446 209.741C276.733 196.754 273.178 179.385 260.506 170.947C247.834 162.509 230.843 166.196 222.556 179.183Z" fill="url(#paint11_linear_2666_16434)"/>
</g>
<defs>
<radialGradient id="paint0_radial_2666_16434" cx="0" cy="0" r="1" gradientUnits="userSpaceOnUse" gradientTransform="translate(129.738 -98.0664) rotate(147.737) scale(320.535 710.551)">
<stop stop-color="#BBFEFF"/>
<stop offset="0.179475" stop-color="#FFD6D6"/>
<stop offset="0.333815" stop-color="#F5D4FD"/>
<stop offset="0.530832" stop-color="#C3F8FF"/>
<stop offset="1" stop-color="#C1FAFF"/>
</radialGradient>
<radialGradient id="paint1_radial_2666_16434" cx="0" cy="0" r="1" gradientUnits="userSpaceOnUse" gradientTransform="translate(-65.6549 36.1324) rotate(158.178) scale(660.355 189.717)">
<stop stop-color="#DEE2FF"/>
<stop offset="0.217184" stop-color="#EBEEFE"/>
<stop offset="0.44328" stop-color="#EAEEFF"/>
<stop offset="0.625054" stop-color="#E7ECFF"/>
<stop offset="1" stop-color="#F3F5FE"/>
</radialGradient>
<radialGradient id="paint2_radial_2666_16434" cx="0" cy="0" r="1" gradientUnits="userSpaceOnUse" gradientTransform="translate(11.2425 5.88025) rotate(147.733) scale(420.016 236.327)">
<stop stop-color="#DEE2FF"/>
<stop offset="0.179475" stop-color="#EBEEFE"/>
<stop offset="0.333815" stop-color="#DEE2FF"/>
<stop offset="0.530832" stop-color="#E7ECFF"/>
<stop offset="1" stop-color="#F3F5FE"/>
</radialGradient>
<linearGradient id="paint3_linear_2666_16434" x1="67.5258" y1="151.713" x2="-85.1028" y2="228.333" gradientUnits="userSpaceOnUse">
<stop stop-color="#BBFEFF"/>
<stop offset="0.308792" stop-color="#FFD6D6"/>
<stop offset="0.478785" stop-color="#F5D4FD"/>
<stop offset="0.636846" stop-color="#C3F8FF"/>
<stop offset="1" stop-color="#C1FAFF"/>
</linearGradient>
<linearGradient id="paint4_linear_2666_16434" x1="67.5258" y1="151.713" x2="-85.1028" y2="228.333" gradientUnits="userSpaceOnUse">
<stop stop-color="#F8FAFF"/>
<stop offset="0.308792" stop-color="#E8ECFF"/>
<stop offset="0.478785" stop-color="#E9ECFF"/>
<stop offset="0.636846" stop-color="#DEE2FF"/>
<stop offset="1" stop-color="#E9ECFF"/>
</linearGradient>
<linearGradient id="paint5_linear_2666_16434" x1="180.816" y1="26.3704" x2="28.1878" y2="102.99" gradientUnits="userSpaceOnUse">
<stop stop-color="#F8FAFF"/>
<stop offset="0.308792" stop-color="#E4E8FF"/>
<stop offset="0.478785" stop-color="#E9ECFF"/>
<stop offset="0.636846" stop-color="#DEE2FF"/>
<stop offset="1" stop-color="#E9ECFF"/>
</linearGradient>
<linearGradient id="paint6_linear_2666_16434" x1="333.682" y1="94.5569" x2="181.054" y2="171.177" gradientUnits="userSpaceOnUse">
<stop stop-color="#BBFEFF"/>
<stop offset="0.308792" stop-color="#FFD6D6"/>
<stop offset="0.478785" stop-color="#F5D4FD"/>
<stop offset="0.636846" stop-color="#C3F8FF"/>
<stop offset="1" stop-color="#C1FAFF"/>
</linearGradient>
<linearGradient id="paint7_linear_2666_16434" x1="333.682" y1="94.5569" x2="181.054" y2="171.177" gradientUnits="userSpaceOnUse">
<stop stop-color="#F8FAFF"/>
<stop offset="0.308792" stop-color="#ECF1FF"/>
<stop offset="0.478785" stop-color="#E9ECFF"/>
<stop offset="0.636846" stop-color="#F3F6FF"/>
<stop offset="1" stop-color="#E9ECFF"/>
</linearGradient>
<linearGradient id="paint8_linear_2666_16434" x1="150.54" y1="214.785" x2="-2.0887" y2="291.405" gradientUnits="userSpaceOnUse">
<stop stop-color="#BBFEFF"/>
<stop offset="0.308792" stop-color="#FFD6D6"/>
<stop offset="0.478785" stop-color="#F5D4FD"/>
<stop offset="0.636846" stop-color="#C3F8FF"/>
<stop offset="1" stop-color="#C1FAFF"/>
</linearGradient>
<linearGradient id="paint9_linear_2666_16434" x1="150.54" y1="214.785" x2="-2.0887" y2="291.405" gradientUnits="userSpaceOnUse">
<stop stop-color="#F8FAFF"/>
<stop offset="0.308792" stop-color="#EAEFFF"/>
<stop offset="0.478785" stop-color="#E9ECFF"/>
<stop offset="0.636846" stop-color="#F9FAFF"/>
<stop offset="1" stop-color="#E9ECFF"/>
</linearGradient>
<linearGradient id="paint10_linear_2666_16434" x1="283.367" y1="186.358" x2="130.738" y2="262.978" gradientUnits="userSpaceOnUse">
<stop stop-color="#BBFEFF"/>
<stop offset="0.308792" stop-color="#FFD6D6"/>
<stop offset="0.478785" stop-color="#F5D4FD"/>
<stop offset="0.636846" stop-color="#C3F8FF"/>
<stop offset="1" stop-color="#C1FAFF"/>
</linearGradient>
<linearGradient id="paint11_linear_2666_16434" x1="283.367" y1="186.358" x2="130.738" y2="262.978" gradientUnits="userSpaceOnUse">
<stop stop-color="#F8FAFF"/>
<stop offset="0.308792" stop-color="#ECF1FF"/>
<stop offset="0.478785" stop-color="#E9ECFF"/>
<stop offset="0.636846" stop-color="#F3F6FF"/>
<stop offset="1" stop-color="#E9ECFF"/>
</linearGradient>
</defs>
</svg>
