<svg width="36" height="36" viewBox="0 0 36 36" fill="none" xmlns="http://www.w3.org/2000/svg">
<rect width="36" height="36" rx="8" fill="black"/>
<rect x="0.5" y="0.5" width="35" height="35" rx="7.5" stroke="black" stroke-opacity="0.1"/>
<path d="M13.0345 26.6052C15.3394 26.6052 16.4573 25.4486 16.4573 24.0953C16.4573 21.1226 11.7668 22.1521 11.7668 20.66C11.7668 20.151 12.1932 19.7346 13.2996 19.7346C14.0141 19.7346 14.7862 19.9428 15.5353 20.3708L16.1115 18.9481C15.3624 18.4739 14.3252 18.231 13.3111 18.231C11.0177 18.231 9.91134 19.3761 9.91134 20.7525C9.91134 23.7598 14.6018 22.7188 14.6018 24.2341C14.6018 24.7314 14.1524 25.1016 13.046 25.1016C12.078 25.1016 11.0638 24.7546 10.3838 24.2572L9.75 25.6683C10.4645 26.2235 11.7553 26.6052 13.0345 26.6052Z" fill="#FAFAFA"/>
<path d="M21.6669 24.9628V23.089H25.4124V21.6316H21.6669V19.8734H25.908V18.3698H19.8115V26.4664H26.0578V24.9628H21.6669Z" fill="#FAFAFA"/>
<path d="M17.8104 16.4681L17.7892 9.06345H16.3824L13.9353 13.6649L11.4634 9.06345H10.0459V16.4681H11.6538V12.1205L13.5228 15.6853H14.295L16.192 12.0253L16.2025 16.4681H17.8104Z" fill="#FAFAFA"/>
<path d="M22.9186 16.595C25.0237 16.595 26.0545 15.3257 26.0545 13.1466V9H24.362V13.0831C24.362 14.49 23.9764 15.1352 22.9292 15.1352C21.8926 15.1352 21.4297 14.5534 21.4297 13.1466V9.06345H19.716V13.21C19.716 15.3891 20.8136 16.595 22.9186 16.595Z" fill="#FAFAFA"/>
</svg>
