<svg width="24" height="24" viewBox="0 0 24 24" fill="none" xmlns="http://www.w3.org/2000/svg">
<path d="M22.5943 20.1113H21.8572V9.39804C21.8572 8.74929 21.3314 8.22337 20.6824 8.22337H15.4205V1.17475C15.4205 0.525995 14.8948 0 14.2458 0H2.61577C1.96716 0 1.44109 0.525995 1.44109 1.17475V20.1113H1.17475C0.525994 20.1113 0 20.6371 0 21.2857V22.8253C0 23.474 0.525994 24 1.17475 24H22.5943C23.2431 24 23.7689 23.474 23.7689 22.8253V21.2857C23.7689 20.6371 23.2432 20.1113 22.5943 20.1113ZM12.0531 15.8199C12.0531 16.4689 11.527 16.9947 10.8783 16.9947H5.98352C5.33469 16.9947 4.80877 16.4689 4.80877 15.8199V15.4675C4.80877 14.8188 5.33469 14.2929 5.98352 14.2929H10.8783C11.527 14.2929 12.0531 14.8188 12.0531 15.4675V15.8199ZM12.0531 10.6903C12.0531 11.339 11.527 11.865 10.8783 11.865H5.98352C5.33469 11.865 4.80877 11.339 4.80877 10.6903V10.3379C4.80877 9.68916 5.33469 9.16316 5.98352 9.16316H10.8783C11.527 9.16316 12.0531 9.68916 12.0531 10.3379V10.6903ZM12.0531 5.16888C12.0531 5.81771 11.527 6.34363 10.8783 6.34363H5.98352C5.33469 6.34363 4.80877 5.81771 4.80877 5.16888V4.81664C4.80877 4.16767 5.33469 3.64182 5.98352 3.64182H10.8783C11.527 3.64182 12.0531 4.16774 12.0531 4.81664V5.16888ZM19.5468 17.9151H16.4142C15.8736 17.9151 15.4352 17.4767 15.4352 16.936C15.4352 16.3955 15.8736 15.9571 16.4142 15.9571H19.5468C20.0875 15.9571 20.5258 16.3955 20.5258 16.936C20.5259 17.4767 20.0875 17.9151 19.5468 17.9151ZM19.5468 13.9599H16.4142C15.8736 13.9599 15.4352 13.5216 15.4352 12.9811C15.4352 12.4402 15.8736 12.002 16.4142 12.002H19.5468C20.0875 12.002 20.5258 12.4403 20.5258 12.9811C20.5259 13.5216 20.0875 13.9599 19.5468 13.9599Z" fill="#8F8F8F"/>
</svg>
