<svg width="24" height="24" viewBox="0 0 24 24" fill="none" xmlns="http://www.w3.org/2000/svg">
<path d="M0 0H1.71429V22.2222H24V24H0V0ZM3.78943 0.936C3.78943 0.445333 4.16914 0.047111 4.64657 0.047111H7.98514C8.0977 0.047111 8.20916 0.0701028 8.31316 0.114774C8.41715 0.159444 8.51164 0.22492 8.59123 0.307461C8.67083 0.390002 8.73396 0.487992 8.77704 0.595837C8.82011 0.703682 8.84229 0.819269 8.84229 0.936V21.3804H3.78857V0.936H3.78943ZM11.3683 6.26311C11.3684 6.14671 11.3907 6.03147 11.4339 5.92403C11.4771 5.81658 11.5403 5.71905 11.6199 5.63702C11.6996 5.555 11.7941 5.49011 11.898 5.44608C12.0019 5.40205 12.1132 5.37974 12.2254 5.38044H15.564C16.0371 5.38044 16.4211 5.776 16.4211 6.26311V21.3804H11.3683V6.26311ZM18.9471 10.4764C18.9471 9.98756 19.3269 9.59022 19.8043 9.59022H23.1429C23.616 9.59022 24 9.98311 24 10.4764V21.3804H18.9471V10.4764Z" fill="#8F8F8F"/>
</svg>
