<svg width="25" height="24" viewBox="0 0 25 24" fill="none" xmlns="http://www.w3.org/2000/svg">
<path d="M20.3571 19.2857V19.9643C20.3571 21.0886 19.4457 22 18.3214 22H2.03571C0.911406 22 0 21.0886 0 19.9643V9.10714C0 7.98283 0.911406 7.07143 2.03571 7.07143H2.71429V15.8929C2.71429 17.7637 4.23632 19.2857 6.10714 19.2857H20.3571ZM24.4286 15.8929V5.03571C24.4286 3.91141 23.5172 3 22.3929 3H6.10714C4.98284 3 4.07143 3.91141 4.07143 5.03571V15.8929C4.07143 17.0172 4.98284 17.9286 6.10714 17.9286H22.3929C23.5172 17.9286 24.4286 17.0172 24.4286 15.8929ZM10.8571 7.07143C10.8571 8.19574 9.94574 9.10714 8.82143 9.10714C7.69712 9.10714 6.78571 8.19574 6.78571 7.07143C6.78571 5.94712 7.69712 5.03571 8.82143 5.03571C9.94574 5.03571 10.8571 5.94712 10.8571 7.07143ZM6.78571 13.1786L9.14015 10.8241C9.33888 10.6254 9.66112 10.6254 9.8599 10.8241L11.5357 12.5L17.283 6.75271C17.4817 6.55398 17.804 6.55398 18.0028 6.75271L21.7143 10.4643V15.2143H6.78571V13.1786Z" fill="#8F8F8F"/>
</svg>
