<svg width="24" height="24" viewBox="0 0 24 24" fill="none" xmlns="http://www.w3.org/2000/svg">
<path d="M8.99972 12C8.20492 12.0027 7.44345 12.3197 6.88155 12.8818C6.31964 13.4439 6.00294 14.2055 6.00056 15.0003C6.00056 16.6495 7.35052 17.9994 8.99972 17.9994C10.65 17.9994 12 16.6495 12 15.0003C12 13.35 10.65 12 8.99972 12ZM3.00028 6.00056C2.20548 6.00294 1.4439 6.31964 0.88178 6.88155C0.319664 7.44345 0.00267056 8.20492 0 8.99972C0 10.65 1.34996 12 3.00028 12C4.6506 12 6.00056 10.65 6.00056 8.99972C6.00056 7.35052 4.6506 6.00056 3.00028 6.00056ZM3.00028 17.9994C2.20529 18.0018 1.44353 18.3187 0.881385 18.8808C0.319237 19.443 0.00237402 20.2047 0 20.9997C0 22.65 1.34996 24 3.00028 24C4.6506 24 6.00056 22.65 6.00056 20.9997C6.00056 19.3494 4.6506 17.9994 3.00028 17.9994ZM20.9997 6.00056C22.65 6.00056 24 4.6506 24 3.00028C24 1.34996 22.65 2.41692e-08 20.9997 0C20.2047 0.00237402 19.443 0.319237 18.8808 0.881385C18.3187 1.44353 18.0018 2.20529 17.9994 3.00028C17.9994 4.6506 19.3494 6.00056 20.9997 6.00056ZM15.0003 17.9994C14.2053 18.0018 13.4435 18.3187 12.8814 18.8808C12.3192 19.443 12.0024 20.2047 12 20.9997C12 22.65 13.35 24 15.0003 24C16.6495 24 17.9994 22.65 17.9994 20.9997C17.9994 19.3494 16.6495 17.9994 15.0003 17.9994ZM20.9997 12C20.2047 12.0024 19.443 12.3192 18.8808 12.8814C18.3187 13.4435 18.0018 14.2053 17.9994 15.0003C17.9994 16.6495 19.3494 17.9994 20.9997 17.9994C22.65 17.9994 24 16.6495 24 15.0003C24 13.35 22.65 12 20.9997 12ZM15.0003 6.00056C14.2055 6.00294 13.4439 6.31964 12.8818 6.88155C12.3197 7.44345 12.0027 8.20492 12 8.99972C12 10.65 13.35 12 15.0003 12C16.6495 12 17.9994 10.65 17.9994 8.99972C17.9994 7.35052 16.6495 6.00056 15.0003 6.00056ZM8.99972 0C8.20492 0.00267056 7.44345 0.319664 6.88155 0.88178C6.31964 1.4439 6.00294 2.20548 6.00056 3.00028C6.00056 4.6506 7.35052 6.00056 8.99972 6.00056C10.65 6.00056 12 4.6506 12 3.00028C12 1.34996 10.65 0 8.99972 0Z" fill="#8F8F8F"/>
</svg>
