<svg width="24" height="24" viewBox="0 0 24 24" fill="none" xmlns="http://www.w3.org/2000/svg">
<path d="M11.1044 0.252662C11.4042 0.0869343 11.7411 0 12.0837 0C12.4262 0 12.7632 0.0869343 13.063 0.252662L22.1225 5.25895C22.4393 5.43378 22.7034 5.69034 22.8873 6.00192C23.0712 6.3135 23.1683 6.6687 23.1683 7.03053V16.9693C23.1681 17.3309 23.0709 17.6859 22.887 17.9973C22.7031 18.3087 22.4391 18.5651 22.1225 18.7399L13.063 23.7476C12.7633 23.9132 12.4265 24 12.0842 24C11.7418 24 11.405 23.9132 11.1053 23.7476L2.04585 18.7408C1.7291 18.566 1.46502 18.3094 1.28108 17.9978C1.09715 17.6862 1.00008 17.3311 1 16.9693V7.03101C1.00034 6.66945 1.09753 6.31457 1.28145 6.00328C1.46537 5.69199 1.72932 5.43564 2.04585 5.26089L11.1039 0.252176V0.252662H11.1044ZM4.90457 8.03169C4.84007 8.14796 4.79912 8.27581 4.78406 8.40792C4.769 8.54003 4.78013 8.67382 4.81681 8.80162C4.85349 8.92943 4.915 9.04876 4.99782 9.15278C5.08064 9.2568 5.18315 9.34348 5.2995 9.40786L11.0723 12.5974V18.958C11.0723 19.2263 11.1789 19.4837 11.3687 19.6735C11.5584 19.8632 11.8158 19.9698 12.0842 19.9698C12.3525 19.9698 12.6099 19.8632 12.7996 19.6735C12.9894 19.4837 13.096 19.2263 13.096 18.958V12.5974L18.8688 9.40591C19.0939 9.27118 19.2579 9.05431 19.3261 8.80103C19.3944 8.54775 19.3616 8.27785 19.2347 8.04827C19.1078 7.81868 18.8967 7.64735 18.646 7.57039C18.3952 7.49344 18.1243 7.51689 17.8905 7.63579L12.0842 10.8438L6.27928 7.63579C6.04441 7.5061 5.76765 7.47501 5.50985 7.54934C5.25206 7.62367 5.03434 7.79735 4.90457 8.03217V8.03169Z" fill="#8F8F8F"/>
</svg>
