<svg width="293" height="294" viewBox="0 0 293 294" fill="none" xmlns="http://www.w3.org/2000/svg">
<path d="M183.349 127.668C181.918 135.11 178.261 141.776 173.093 146.943C166.361 153.682 157.063 157.861 146.837 157.861H124.966C125.003 165.988 128.344 173.381 133.706 178.743C139.098 184.135 146.54 187.482 154.722 187.482H180.959C184.058 187.482 186.957 187.925 189.717 188.823C192.47 189.721 195.072 191.085 197.583 192.923L216.374 206.679V160.063C216.374 151.238 212.759 143.213 206.906 137.355C201.059 131.544 193.071 127.972 184.284 127.972C183.938 127.972 183.616 127.863 183.349 127.668ZM153.442 114.738C155.085 114.738 156.571 115.405 157.699 116.533C158.767 117.655 159.391 119.104 159.391 120.687C159.391 122.331 158.724 123.817 157.651 124.897C156.577 125.97 155.085 126.637 153.442 126.637C151.804 126.637 150.312 125.97 149.238 124.891C148.159 123.817 147.492 122.331 147.492 120.687C147.492 119.05 148.159 117.564 149.232 116.49C150.318 115.405 151.81 114.744 153.442 114.744V114.738ZM130.078 114.738C131.722 114.738 133.208 115.405 134.336 116.533C135.404 117.655 136.028 119.104 136.028 120.687C136.028 122.331 135.361 123.817 134.288 124.897C133.214 125.97 131.722 126.637 130.078 126.637C128.435 126.637 126.949 125.97 125.869 124.897C124.796 123.823 124.129 122.331 124.129 120.687C124.129 119.05 124.796 117.558 125.875 116.484C126.949 115.405 128.435 114.738 130.078 114.738ZM106.715 114.738C108.347 114.738 109.839 115.405 110.912 116.478C111.998 117.564 112.659 119.05 112.659 120.687C112.659 122.331 111.992 123.817 110.864 124.945C109.742 126.013 108.292 126.637 106.709 126.637C105.065 126.637 103.58 125.97 102.5 124.897C101.426 123.823 100.759 122.331 100.759 120.687C100.759 119.05 101.426 117.558 102.506 116.484C103.58 115.405 105.065 114.738 106.709 114.738H106.715ZM146.836 86.6869H113.278C103.241 86.6869 94.1121 90.7748 87.434 97.41C80.7502 104.094 76.626 113.258 76.626 123.338V176.687L98.3029 160.814C101.135 158.739 104.071 157.205 107.17 156.192C110.282 155.179 113.551 154.682 117.05 154.682H146.837C156.183 154.682 164.687 150.855 170.849 144.692C177.012 138.53 180.838 130.033 180.838 120.68C180.838 111.334 177.011 102.831 170.849 96.668C164.687 90.5054 156.19 86.6787 146.837 86.6787L146.836 86.6869Z" fill="black"/>
<path d="M183.349 127.668C181.918 135.11 178.261 141.776 173.093 146.943C166.361 153.682 157.063 157.861 146.837 157.861H124.966C125.003 165.988 128.344 173.381 133.706 178.743C139.098 184.135 146.54 187.482 154.722 187.482H180.959C184.058 187.482 186.957 187.925 189.717 188.823C192.47 189.721 195.072 191.085 197.583 192.923L216.374 206.679V160.063C216.374 151.238 212.759 143.213 206.906 137.355C201.059 131.544 193.071 127.972 184.284 127.972C183.938 127.972 183.616 127.863 183.349 127.668ZM153.442 114.738C155.085 114.738 156.571 115.405 157.699 116.533C158.767 117.655 159.391 119.104 159.391 120.687C159.391 122.331 158.724 123.817 157.651 124.897C156.577 125.97 155.085 126.637 153.442 126.637C151.804 126.637 150.312 125.97 149.238 124.891C148.159 123.817 147.492 122.331 147.492 120.687C147.492 119.05 148.159 117.564 149.232 116.49C150.318 115.405 151.81 114.744 153.442 114.744V114.738ZM130.078 114.738C131.722 114.738 133.208 115.405 134.336 116.533C135.404 117.655 136.028 119.104 136.028 120.687C136.028 122.331 135.361 123.817 134.288 124.897C133.214 125.97 131.722 126.637 130.078 126.637C128.435 126.637 126.949 125.97 125.869 124.897C124.796 123.823 124.129 122.331 124.129 120.687C124.129 119.05 124.796 117.558 125.875 116.484C126.949 115.405 128.435 114.738 130.078 114.738ZM106.715 114.738C108.347 114.738 109.839 115.405 110.912 116.478C111.998 117.564 112.659 119.05 112.659 120.687C112.659 122.331 111.992 123.817 110.864 124.945C109.742 126.013 108.292 126.637 106.709 126.637C105.065 126.637 103.58 125.97 102.5 124.897C101.426 123.823 100.759 122.331 100.759 120.687C100.759 119.05 101.426 117.558 102.506 116.484C103.58 115.405 105.065 114.738 106.709 114.738H106.715ZM146.836 86.6869H113.278C103.241 86.6869 94.1121 90.7748 87.434 97.41C80.7502 104.094 76.626 113.258 76.626 123.338V176.687L98.3029 160.814C101.135 158.739 104.071 157.205 107.17 156.192C110.282 155.179 113.551 154.682 117.05 154.682H146.837C156.183 154.682 164.687 150.855 170.849 144.692C177.012 138.53 180.838 130.033 180.838 120.68C180.838 111.334 177.011 102.831 170.849 96.668C164.687 90.5054 156.19 86.6787 146.837 86.6787L146.836 86.6869Z" fill="#E3E3DE"/>
</svg>
