<svg width="293" height="294" viewBox="0 0 293 294" fill="none" xmlns="http://www.w3.org/2000/svg">
<path d="M114.577 74.5L112.833 81.0487L105.402 108.852H119.335L124.116 91.0416L202.438 112.047L185.016 177.036V205.292L191.02 206.901L192.764 200.375L217.233 109.034L219 102.485L212.452 100.74L121.102 76.2448L114.577 74.5ZM74 111.413V118.165V212.747V219.5H80.7516H175.341H182.093V212.747V118.165V111.413H175.341H80.7516H74ZM87.5031 124.918H168.567V205.995H87.5031V124.918ZM119.97 144.7C119.075 144.7 117.918 145.297 116.798 147.261L100.938 175.019C104.482 174.015 108.313 173.414 112.425 173.455C115.01 173.481 117.711 173.778 120.491 174.384C125.913 175.568 130.902 177.989 135.557 180.933L138.978 174.951L123.141 147.261C122.024 145.303 120.864 144.7 119.97 144.7ZM149.627 165.638C149.203 165.638 148.527 165.921 147.769 167.247L141.153 178.803L138.729 183.04C139.282 183.428 139.839 183.821 140.383 184.219C142.015 185.413 143.596 186.631 145.141 187.867C145.899 188.474 146.644 189.075 147.384 189.68C152.896 194.186 157.915 198.557 162.269 201.146H163.719V188.615L151.507 167.247C150.753 165.928 150.051 165.638 149.627 165.638ZM112.38 177.217C111.726 177.21 111.093 177.233 110.454 177.262C110.347 177.267 110.243 177.279 110.137 177.285C109.766 177.305 109.393 177.344 109.027 177.375C108.778 177.397 108.526 177.416 108.279 177.443C107.2 177.561 106.142 177.713 105.107 177.919C105.039 177.933 104.971 177.95 104.903 177.965C104.306 178.087 103.718 178.224 103.136 178.372C103.059 178.392 102.986 178.42 102.909 178.44C102.659 178.506 102.41 178.574 102.162 178.644C101.83 178.738 101.492 178.815 101.165 178.916C100.966 178.978 100.773 179.056 100.576 179.12C100.143 179.262 99.7085 179.398 99.2844 179.551C99.0179 179.647 98.7544 179.745 98.4914 179.845C98.3624 179.895 98.2344 179.954 98.1063 180.004C95.7383 180.933 93.5048 182.029 91.4227 183.176V201.961H156.65C153.253 199.525 149.776 196.54 146.115 193.509C145.026 192.61 143.913 191.716 142.784 190.813C141.821 190.042 140.848 189.272 139.862 188.524C139.04 187.902 138.207 187.286 137.37 186.689C135.618 185.44 133.823 184.278 132 183.199C131.901 183.14 131.805 183.076 131.705 183.018C130.109 182.085 128.486 181.243 126.834 180.503C126.491 180.348 126.16 180.194 125.815 180.049C125.575 179.949 125.331 179.85 125.09 179.755C125.068 179.746 125.044 179.741 125.022 179.732C123.861 179.275 122.698 178.864 121.51 178.531C121.421 178.506 121.328 178.487 121.238 178.463C120.722 178.323 120.197 178.192 119.675 178.078C117.147 177.526 114.71 177.241 112.38 177.217Z" fill="url(#paint0_linear_3114_89810)"/>
<defs>
<linearGradient id="paint0_linear_3114_89810" x1="146.5" y1="74.5" x2="146.5" y2="219.5" gradientUnits="userSpaceOnUse">
<stop stop-color="#FFAA83"/>
<stop offset="0.465" stop-color="#FFAB83"/>
<stop offset="1" stop-color="#FF854A"/>
</linearGradient>
</defs>
</svg>
