<svg width="293" height="294" viewBox="0 0 293 294" fill="none" xmlns="http://www.w3.org/2000/svg">
<path d="M136.225 93.0696V201.3C136.225 211.575 131.858 215.685 120.941 215.685H93.2841C82.3669 215.685 78 211.575 78 201.3V93.0696C78 82.7946 82.3669 78.6846 93.2841 78.6846H120.941C131.858 78.6846 136.225 82.7946 136.225 93.0696ZM199.716 78.6846H172.059C161.142 78.6846 156.775 82.7946 156.775 93.0696V153.35C156.775 163.625 161.142 167.735 172.059 167.735H199.716C210.633 167.735 215 163.625 215 153.35V93.0696C215 82.7946 210.633 78.6846 199.716 78.6846Z" fill="url(#paint0_linear_3114_89891)"/>
<defs>
<linearGradient id="paint0_linear_3114_89891" x1="146.5" y1="78.6846" x2="146.5" y2="215.685" gradientUnits="userSpaceOnUse">
<stop stop-color="#6EA0D9"/>
<stop offset="1" stop-color="#2143AA"/>
</linearGradient>
</defs>
</svg>
