<svg width="293" height="294" viewBox="0 0 293 294" fill="none" xmlns="http://www.w3.org/2000/svg">
<path d="M141.442 74.9326C139.756 74.9326 136.384 76.6187 136.384 79.9907C137.148 85.714 138.01 90.8183 139.018 95.4812C140.171 91.1542 140.935 86.0566 141.495 79.9907C141.541 78.3376 142.377 76.342 143.339 75.4595C142.739 75.1302 142.028 75.0643 141.442 74.9326ZM148.186 74.9326C146.5 74.9326 143.128 76.6187 143.128 79.9907C141.573 97.0821 138.603 106.981 128.902 113.712C128.079 115.049 127.124 116.333 126.004 117.453C119.49 122.53 113.029 124.493 105.771 122.721C103.117 123.268 100.799 124.006 99.2906 125.514C89.1743 135.63 79.0581 149.118 79.0581 154.176C79.0581 161.698 88.4564 167.83 94.0743 172.671C96.959 172.598 100.358 171.709 101.293 170.3C102.195 168.95 102.544 166.954 102.61 164.82L92.9677 153.545C92.4803 152.965 92.454 152.043 92.915 151.437L99.6591 143.007C99.8897 142.697 100.232 142.467 100.608 142.375C101.602 142.151 102.689 143.04 102.662 144.061C102.274 149.079 101.023 153.914 100.818 157.549L105.666 163.187C105.916 163.496 106.048 163.898 106.034 164.293C106.034 167.007 105.639 169.819 104.085 172.144C102.807 174.06 99.1718 175.443 95.813 175.885L92.5463 219.933H102.663C107.721 203.072 111.093 171.037 114.465 171.037C119.523 171.037 121.209 203.072 126.267 219.933H138.069L134.697 162.607V133.945C148.186 118.77 149.859 105.381 153.244 79.9913C153.073 77.3569 150.662 75.0248 148.186 74.9326ZM111.093 85.0489C100.852 85.0489 92.5466 93.3539 92.5466 103.595C92.5466 113.837 100.852 122.142 111.093 122.142C121.334 122.142 129.639 113.837 129.639 103.595C129.639 93.3539 121.334 85.0489 111.093 85.0489ZM181.907 85.0489C171.665 85.0489 163.36 93.3539 163.36 103.595C163.36 113.837 171.665 122.142 181.907 122.142C192.148 122.142 200.453 113.837 200.453 103.595C200.453 93.3539 192.148 85.0489 181.907 85.0489ZM151.875 100.381C150.65 106.888 149.188 112.592 146.922 117.926C149.873 123.439 153.548 128.596 158.303 133.944V162.606L154.931 219.932H166.733C171.791 203.071 173.477 171.037 178.535 171.037C181.908 171.037 185.28 203.071 190.338 219.932H200.454L197.187 176.095C193.835 175.594 190.246 174.06 188.968 172.143C187.413 169.818 186.966 167.006 186.966 164.292C186.966 163.891 187.124 163.489 187.387 163.186L192.235 157.548C191.846 152.918 190.377 147.787 190.338 144.06C190.325 143.276 190.937 142.525 191.708 142.374C192.314 142.268 192.966 142.519 193.341 143.006L200.085 151.436C200.559 152.029 200.559 152.951 200.085 153.544L190.39 164.819C190.456 166.953 190.858 168.949 191.76 170.299C192.676 171.669 195.89 172.742 198.715 172.88C204.3 168.013 213.942 161.803 213.942 154.176C213.942 149.117 203.826 135.629 193.71 125.513C192.208 124.011 189.916 123.267 187.282 122.72C180.221 124.42 171.699 121.963 167.049 117.452C165.936 116.339 164.968 115.087 164.151 113.763C158.948 110.325 154.839 106.026 151.875 100.381Z" fill="url(#paint0_linear_3114_89924)"/>
<defs>
<linearGradient id="paint0_linear_3114_89924" x1="146.5" y1="74.9326" x2="146.5" y2="219.933" gradientUnits="userSpaceOnUse">
<stop stop-color="#4B6DE9"/>
<stop offset="1" stop-color="#1C316D"/>
</linearGradient>
</defs>
</svg>
