<svg width="293" height="294" viewBox="0 0 293 294" fill="none" xmlns="http://www.w3.org/2000/svg">
<path opacity="0.8" fill-rule="evenodd" clip-rule="evenodd" d="M226.633 149.976C204.94 177.064 176.997 193.377 146.498 193.377C116.002 193.377 88.0616 177.067 66.3658 149.985C64.9743 148.247 64.9743 145.846 66.3626 144.107C112.578 86.2925 180.698 86.2925 226.645 144.107C228.027 145.849 228.024 148.244 226.633 149.976ZM146.501 112.377C165.657 112.377 181.184 127.905 181.184 147.06C181.184 166.216 165.657 181.747 146.501 181.747C127.345 181.747 111.815 166.216 111.815 147.06C111.815 127.905 127.345 112.377 146.501 112.377Z" fill="#FA6800"/>
<path fill-rule="evenodd" clip-rule="evenodd" d="M146.501 122.824C148.258 122.824 149.969 123.014 151.622 123.367C149.161 125.191 147.567 128.116 147.567 131.413C147.567 136.941 152.048 141.422 157.576 141.422C162.079 141.422 165.887 138.449 167.143 134.357C169.421 138.052 170.737 142.403 170.737 147.06C170.737 160.445 159.886 171.296 146.501 171.296C133.116 171.296 122.265 160.445 122.265 147.06C122.265 133.675 133.116 122.824 146.501 122.824Z" fill="#1C1812"/>
</svg>
