<svg width="293" height="294" viewBox="0 0 293 294" fill="none" xmlns="http://www.w3.org/2000/svg">
<path d="M183.082 155.764L180.832 160.263C179.651 162.626 177.736 164.542 175.373 165.723L170.874 167.972L175.372 170.222C177.735 171.403 179.65 173.319 180.832 175.682L183.082 180.181L185.331 175.682C186.513 173.319 188.429 171.403 190.791 170.222L195.29 167.972L190.79 165.723C188.428 164.542 186.513 162.626 185.331 160.263L183.082 155.764Z" fill="url(#paint0_linear_3114_89751)"/>
<path d="M183.082 125.245L185.331 120.746C186.513 118.383 188.429 116.467 190.791 115.286L195.29 113.037L190.79 110.788C188.428 109.606 186.513 107.69 185.331 105.328L183.082 100.828L180.832 105.328C179.651 107.69 177.736 109.606 175.373 110.788L170.874 113.037L175.372 115.286C177.735 116.467 179.65 118.383 180.832 120.746L183.082 125.245Z" fill="url(#paint1_linear_3114_89751)"/>
<path d="M115.935 131.348L120.219 122.779C121.4 120.416 123.316 118.5 125.679 117.319L134.248 113.035L125.679 108.751C123.316 107.57 121.4 105.654 120.219 103.291L115.935 94.7227L111.651 103.291C110.47 105.654 108.554 107.57 106.191 108.75L97.6226 113.035L106.191 117.32C108.554 118.5 110.47 120.416 111.651 122.779L115.935 131.348Z" fill="url(#paint2_linear_3114_89751)"/>
<path d="M165.509 130.608C163.22 128.319 160.114 127.032 156.877 127.032C153.639 127.032 150.534 128.319 148.245 130.608L101.506 177.347C98.4218 180.431 97.2179 184.926 98.3462 189.139C99.4754 193.353 102.766 196.643 106.979 197.773C111.192 198.901 115.687 197.697 118.771 194.613L165.51 147.874C167.799 145.584 169.086 142.479 169.086 139.241C169.086 136.004 167.8 132.898 165.511 130.609L165.509 130.608ZM161.193 143.557L156.877 147.874L148.245 139.242L152.56 134.924C154.102 133.382 156.35 132.779 158.457 133.345C160.564 133.909 162.209 135.554 162.773 137.661C163.338 139.767 162.735 142.016 161.193 143.557Z" fill="url(#paint3_linear_3114_89751)"/>
<defs>
<linearGradient id="paint0_linear_3114_89751" x1="183.082" y1="155.764" x2="183.082" y2="180.181" gradientUnits="userSpaceOnUse">
<stop stop-color="#E7FF3A"/>
<stop offset="1" stop-color="#DADAD2"/>
</linearGradient>
<linearGradient id="paint1_linear_3114_89751" x1="183.082" y1="100.828" x2="183.082" y2="125.245" gradientUnits="userSpaceOnUse">
<stop stop-color="#E7FF3A"/>
<stop offset="1" stop-color="#DADAD2"/>
</linearGradient>
<linearGradient id="paint2_linear_3114_89751" x1="115.935" y1="94.7227" x2="115.935" y2="131.348" gradientUnits="userSpaceOnUse">
<stop stop-color="#E7FF3A"/>
<stop offset="1" stop-color="#DADAD2"/>
</linearGradient>
<linearGradient id="paint3_linear_3114_89751" x1="133.508" y1="127.032" x2="133.508" y2="198.188" gradientUnits="userSpaceOnUse">
<stop stop-color="#E7FF3A"/>
<stop offset="1" stop-color="#DADAD2"/>
</linearGradient>
</defs>
</svg>
