<svg width="293" height="294" viewBox="0 0 293 294" fill="none" xmlns="http://www.w3.org/2000/svg">
<path fill-rule="evenodd" clip-rule="evenodd" d="M117.072 125.189C116.147 125.135 115.231 125.404 114.482 125.949C113.733 126.495 113.196 127.283 112.964 128.18C112.731 129.078 112.817 130.028 113.207 130.868C113.597 131.709 114.266 132.389 115.101 132.791C115.936 133.194 116.884 133.294 117.785 133.075C118.685 132.856 119.482 132.331 120.039 131.59C120.595 130.85 120.878 129.939 120.838 129.013C120.798 128.087 120.438 127.204 119.82 126.513C119.471 126.123 119.049 125.805 118.578 125.578C118.106 125.35 117.594 125.218 117.072 125.189ZM110.584 122.202C112.198 120.75 114.265 119.902 116.434 119.803C118.603 119.703 120.739 120.36 122.478 121.659C124.218 122.959 125.452 124.821 125.973 126.929C126.493 129.037 126.266 131.26 125.33 133.219C124.395 135.179 122.809 136.753 120.843 137.674C118.877 138.595 116.652 138.806 114.548 138.27C112.444 137.735 110.591 136.487 109.304 134.738C108.017 132.989 107.377 130.848 107.491 128.68C107.554 127.45 107.86 126.244 108.391 125.132C108.921 124.021 109.667 123.025 110.584 122.202ZM191.175 156.084L144.813 104.437C144.577 104.174 144.29 103.96 143.971 103.807C143.651 103.655 143.305 103.568 142.951 103.55L107.397 101.635C107.023 101.596 106.645 101.636 106.289 101.753C105.932 101.87 105.603 102.06 105.325 102.312L104.057 103.449L104.349 98.036L116.642 87L150.096 88.8056L199.647 143.999L199.389 148.695L191.163 156.077L191.175 156.084ZM188.971 161.688L191.105 164.058L190.849 168.753L148.246 207L143.551 206.748L94 151.552L95.8015 118.097L108.095 107.061L141.55 108.863L188.965 161.678L188.971 161.688Z" fill="url(#paint0_linear_3114_89491)"/>
<defs>
<linearGradient id="paint0_linear_3114_89491" x1="146.823" y1="87" x2="146.823" y2="207" gradientUnits="userSpaceOnUse">
<stop offset="0.365" stop-color="#FFB5DB"/>
<stop offset="1" stop-color="white"/>
</linearGradient>
</defs>
</svg>
