<svg width="293" height="294" viewBox="0 0 293 294" fill="none" xmlns="http://www.w3.org/2000/svg">
<path d="M95.4688 187.363C99.0625 187.363 101.938 184.488 101.938 180.894V169.25H187.469V106H89V181.037C89 184.488 91.875 187.363 95.4688 187.363ZM145.638 163.788V160.194H177.119V163.788H145.638ZM145.638 155.594V152H177.119V155.594H145.638ZM145.638 147.256V143.663H177.119V147.256H145.638ZM99.4937 116.925H177.119V137.481H99.4937V116.925ZM99.4937 143.663H130.831V147.256H99.4937V143.663ZM99.4937 152H130.831V155.594H99.4937V152ZM99.4937 160.194H130.831V163.788H99.4937V160.194Z" fill="url(#paint0_linear_3114_89786)"/>
<path d="M189.194 172.988H105.531V181.037C105.531 183.481 104.525 185.781 103.087 187.506H197.531C201.125 187.506 204 184.631 204 181.037V172.988H189.194C189.337 172.988 189.337 172.988 189.194 172.988Z" fill="url(#paint1_linear_3114_89786)"/>
<defs>
<linearGradient id="paint0_linear_3114_89786" x1="146.5" y1="106" x2="146.5" y2="187.506" gradientUnits="userSpaceOnUse">
<stop stop-color="#DDD2F3"/>
<stop offset="1" stop-color="#9082AA"/>
</linearGradient>
<linearGradient id="paint1_linear_3114_89786" x1="146.5" y1="106" x2="146.5" y2="187.506" gradientUnits="userSpaceOnUse">
<stop stop-color="#DDD2F3"/>
<stop offset="1" stop-color="#9082AA"/>
</linearGradient>
</defs>
</svg>
