<svg width="293" height="294" viewBox="0 0 293 294" fill="none" xmlns="http://www.w3.org/2000/svg">
<path d="M200.332 208.176V120.787C200.332 118.902 198.8 117.365 196.91 117.365H182.669C180.783 117.365 179.247 118.902 179.247 120.787V208.176H171.472V150.377C171.472 148.487 169.936 146.956 168.046 146.956H153.805C151.915 146.956 150.388 148.487 150.388 150.377V208.176H142.604V158.017C142.604 156.122 141.072 154.591 139.182 154.591H124.945C123.055 154.591 121.519 156.122 121.519 158.017V208.171H113.739V174.712C113.739 172.822 112.208 171.285 110.318 171.285H96.081C94.1909 171.285 92.6592 172.822 92.6592 174.712V208.171H84V214.735H209V208.171L200.332 208.176Z" fill="url(#paint0_linear_3114_89937)"/>
<path d="M92.3196 148.422C92.7712 148.422 93.2275 148.357 93.679 148.222C95.3504 147.729 134 135.946 174.173 100.368L178.698 105.699C180.393 107.705 182.511 107.319 183.395 104.842L191.356 82.5981C192.236 80.1214 190.849 78.478 188.26 78.9528L165.015 83.18C162.427 83.6549 161.705 85.6754 163.405 87.6819L167.986 93.0823C129.382 127.3 91.342 138.948 90.9556 139.065C88.4276 139.819 86.9844 142.482 87.7433 145.01C88.3625 147.082 90.2619 148.422 92.3196 148.422Z" fill="url(#paint1_linear_3114_89937)"/>
<defs>
<linearGradient id="paint0_linear_3114_89937" x1="146.5" y1="117.365" x2="146.5" y2="214.735" gradientUnits="userSpaceOnUse">
<stop offset="0.515" stop-color="#FF8043"/>
<stop offset="0.97" stop-color="#5C45A7"/>
</linearGradient>
<linearGradient id="paint1_linear_3114_89937" x1="139.581" y1="78.8711" x2="139.581" y2="148.422" gradientUnits="userSpaceOnUse">
<stop offset="0.515" stop-color="#FF8043"/>
<stop offset="0.97" stop-color="#5C45A7"/>
</linearGradient>
</defs>
</svg>
