<svg width="293" height="294" viewBox="0 0 293 294" fill="none" xmlns="http://www.w3.org/2000/svg">
<path d="M111.749 116.663C111.754 116.665 111.758 116.666 111.763 116.666C120.204 116.668 127.859 120.101 133.418 125.654C135.216 127.462 138.005 128.07 140.213 126.795L160.341 115.177C164.548 112.749 166.115 107.566 166.115 102.708C166.115 96.403 168.681 90.6724 172.83 86.5238C176.967 82.3752 182.692 79.8086 189.008 79.8086C195.331 79.8086 201.056 82.3751 205.199 86.5179L205.392 86.7289C209.423 90.8599 211.908 96.5027 211.908 102.708C211.908 109.012 209.341 114.737 205.193 118.886C201.056 123.034 195.331 125.601 189.009 125.601C182.686 125.601 176.967 123.034 172.818 118.892L172.625 118.681C171.758 117.794 170.403 117.527 169.329 118.147L150.709 128.902C144.543 132.464 142.401 140.184 142.401 147.305C142.401 154.434 144.547 162.16 150.721 165.724L169.069 176.315C170.286 177.017 171.824 176.717 172.812 175.719C176.955 171.576 182.68 169.01 189.002 169.01C195.325 169.01 201.05 171.576 205.193 175.719C209.335 179.862 211.902 185.586 211.902 191.909C211.902 198.232 209.335 203.956 205.193 208.099C201.05 212.242 195.325 214.809 189.002 214.809C182.68 214.809 176.961 212.242 172.812 208.099C168.669 203.957 166.103 198.232 166.103 191.909C166.103 187.051 164.536 181.868 160.329 179.439L140.224 167.834C138.012 166.557 135.219 167.174 133.412 168.98L133.207 169.174C127.67 174.611 120.093 177.963 111.743 177.963C103.299 177.963 95.6412 174.529 90.0805 168.974C84.5197 163.408 81.0918 155.749 81.0918 147.312C81.0918 138.868 84.5256 131.204 90.0805 125.65C95.6163 120.096 103.284 116.663 111.736 116.661C111.741 116.661 111.745 116.662 111.749 116.663Z" fill="url(#paint0_linear_3114_89909)"/>
<path d="M111.749 116.663C111.754 116.665 111.758 116.666 111.763 116.666C120.204 116.668 127.859 120.101 133.418 125.654C135.216 127.462 138.005 128.07 140.213 126.795L160.341 115.177C164.548 112.749 166.115 107.566 166.115 102.708C166.115 96.403 168.681 90.6724 172.83 86.5238C176.967 82.3752 182.692 79.8086 189.008 79.8086C195.331 79.8086 201.056 82.3751 205.199 86.5179L205.392 86.7289C209.423 90.8599 211.908 96.5027 211.908 102.708C211.908 109.012 209.341 114.737 205.193 118.886C201.056 123.034 195.331 125.601 189.009 125.601C182.686 125.601 176.967 123.034 172.818 118.892L172.625 118.681C171.758 117.794 170.403 117.527 169.329 118.147L150.709 128.902C144.543 132.464 142.401 140.184 142.401 147.305C142.401 154.434 144.547 162.16 150.721 165.724L169.069 176.315C170.286 177.017 171.824 176.717 172.812 175.719C176.955 171.576 182.68 169.01 189.002 169.01C195.325 169.01 201.05 171.576 205.193 175.719C209.335 179.862 211.902 185.586 211.902 191.909C211.902 198.232 209.335 203.956 205.193 208.099C201.05 212.242 195.325 214.809 189.002 214.809C182.68 214.809 176.961 212.242 172.812 208.099C168.669 203.957 166.103 198.232 166.103 191.909C166.103 187.051 164.536 181.868 160.329 179.439L140.224 167.834C138.012 166.557 135.219 167.174 133.412 168.98L133.207 169.174C127.67 174.611 120.093 177.963 111.743 177.963C103.299 177.963 95.6412 174.529 90.0805 168.974C84.5197 163.408 81.0918 155.749 81.0918 147.312C81.0918 138.868 84.5256 131.204 90.0805 125.65C95.6163 120.096 103.284 116.663 111.736 116.661C111.741 116.661 111.745 116.662 111.749 116.663Z" fill="url(#paint1_linear_3114_89909)"/>
<defs>
<linearGradient id="paint0_linear_3114_89909" x1="146.5" y1="79.8086" x2="146.5" y2="214.809" gradientUnits="userSpaceOnUse">
<stop stop-color="#9DAFC7"/>
<stop offset="1" stop-color="#C3CFE8"/>
</linearGradient>
<linearGradient id="paint1_linear_3114_89909" x1="146.5" y1="79.8086" x2="146.5" y2="214.809" gradientUnits="userSpaceOnUse">
<stop stop-color="#6A85B6"/>
<stop offset="1" stop-color="#F5EFEF"/>
</linearGradient>
</defs>
</svg>
