<svg width="293" height="294" viewBox="0 0 293 294" fill="none" xmlns="http://www.w3.org/2000/svg">
<path d="M190 124.806H182.75V110.306C182.75 90.3682 166.438 74.0557 146.5 74.0557C126.562 74.0557 110.25 90.3682 110.25 110.306V124.806H103C95.025 124.806 88.5 131.331 88.5 139.306V204.556C88.5 212.531 95.025 219.056 103 219.056H190C197.975 219.056 204.5 212.531 204.5 204.556V139.306C204.5 131.331 197.975 124.806 190 124.806ZM155.33 199.492H151.583H142.585H138.838L141.262 181.462C137.903 179.612 135.625 176.037 135.625 171.931C135.625 165.924 140.494 161.056 146.5 161.056C152.506 161.056 157.375 165.924 157.375 171.931C157.375 175.581 155.575 178.81 152.816 180.782L155.33 199.492ZM168.25 124.806H124.75V110.306C124.75 98.3432 134.538 88.5557 146.5 88.5557C158.463 88.5557 168.25 98.3432 168.25 110.306V124.806Z" fill="#1C1812"/>
</svg>
