<svg width="293" height="294" viewBox="0 0 293 294" fill="none" xmlns="http://www.w3.org/2000/svg">
<path opacity="0.8" fill-rule="evenodd" clip-rule="evenodd" d="M209.376 186.356H200.743V117.29C200.743 112.83 196.427 112.973 196.427 112.973H153.261C149.807 112.973 147.361 110.671 141.75 106.642C136.138 102.47 130.958 102.901 130.958 102.901H97.1447C97.1447 99.1603 97.1447 96.2826 97.1447 94.4121C97.1447 88.5127 102.9 88.5127 102.9 88.5127H145.347C145.347 88.5127 150.527 88.081 156.138 92.2538C161.75 96.4265 164.196 98.5848 167.649 98.5848H210.815C210.815 98.5848 215.132 98.4409 215.132 102.901V180.6C215.132 183.766 212.542 186.356 209.376 186.356ZM135.994 112.398C141.606 116.571 144.052 118.729 147.505 118.729H190.671C190.671 118.729 194.988 118.585 194.988 123.046V200.745C194.988 203.91 192.398 206.5 189.232 206.5H82.756C79.5905 206.5 77.0005 203.91 77.0005 200.745C77.0005 200.745 77.0005 128.082 77.0005 114.556C77.0005 108.657 82.756 108.657 82.756 108.657H125.203C125.203 108.657 130.383 108.225 135.994 112.398Z" fill="url(#paint0_linear_3114_89839)"/>
<defs>
<linearGradient id="paint0_linear_3114_89839" x1="146.066" y1="88.5" x2="146.066" y2="206.5" gradientUnits="userSpaceOnUse">
<stop stop-color="#A3B8FC"/>
<stop offset="1" stop-color="#A3B8FC"/>
</linearGradient>
</defs>
</svg>
